<?xml version="1.0" encoding="utf-8"?>
<!-- Generator: Adobe Illustrator 24.2.0, SVG Export Plug-In . SVG Version: 6.00 Build 0)  -->
<svg version="1.1" id="Layer_1" xmlns="http://www.w3.org/2000/svg" xmlns:xlink="http://www.w3.org/1999/xlink" x="0px" y="0px"
	 viewBox="0 0 584.1 833.5" style="enable-background:new 0 0 584.1 833.5;" xml:space="preserve">
<style type="text/css">
	.st0{fill:none;stroke:#191919;stroke-width:1.9843;stroke-linecap:square;stroke-miterlimit:11.3386;}
</style>
<g id="Shape2DView" transform="translate(4.020000,172.020000) scale(1,-1)">
	<path id="Shape2DView_nwe0000" class="st0" d="M574.3-315.6v45.5"/>
	<path id="Shape2DView_nwe0001" class="st0" d="M7.4-315.6h566.9"/>
	<path id="Shape2DView_nwe0002" class="st0" d="M7.4-270.1v-45.5"/>
	<path id="Shape2DView_nwe0003" class="st0" d="M12.6-270.1H7.4"/>
	<path id="Shape2DView_nwe0004" class="st0" d="M574.3-270.1h-5.2"/>
	<path id="Shape2DView_nwe0005" class="st0" d="M12.6-270.1c0.1-0.2,0.4-0.3,0.6-0.1c0.2,0.1,0.3,0.4,0.1,0.6c0,0.1-0.1,0.1-0.1,0.1
		"/>
	<path id="Shape2DView_nwe0006" class="st0" d="M568.3-269.9c0-0.2,0.2-0.4,0.4-0.4c0.1,0,0.3,0.1,0.3,0.2"/>
	<path id="Shape2DView_nwe0007" class="st0" d="M13.1-269.5v26.9"/>
	<path id="Shape2DView_nwe0008" class="st0" d="M568.5-269.5c-0.1-0.1-0.2-0.2-0.2-0.3"/>
	<path id="Shape2DView_nwe0009" class="st0" d="M13.1-242.6c0.2,0.1,0.3,0.4,0.1,0.6c-0.1,0.2-0.4,0.3-0.6,0.1
		c-0.1,0-0.1-0.1-0.1-0.1"/>
	<path id="Shape2DView_nwe0010" class="st0" d="M568.5-269.5v26.9"/>
	<path id="Shape2DView_nwe0011" class="st0" d="M12.6-242.1H7.4"/>
	<path id="Shape2DView_nwe0012" class="st0" d="M568.3-242.3c0-0.1,0.1-0.3,0.2-0.3"/>
	<path id="Shape2DView_nwe0013" class="st0" d="M7.4-162.3v-79.7"/>
	<path id="Shape2DView_nwe0014" class="st0" d="M569.1-242.1c-0.1,0.2-0.4,0.3-0.6,0.1c-0.1-0.1-0.2-0.2-0.2-0.3"/>
	<path id="Shape2DView_nwe0015" class="st0" d="M12.6-162.3H7.4"/>
	<path id="Shape2DView_nwe0016" class="st0" d="M574.3-242.1h-5.2"/>
	<path id="Shape2DView_nwe0017" class="st0" d="M12.6-162.3c0.1-0.2,0.4-0.3,0.6-0.1c0.2,0.1,0.3,0.4,0.1,0.6c0,0.1-0.1,0.1-0.1,0.1
		"/>
	<path id="Shape2DView_nwe0018" class="st0" d="M574.3-242.1v79.7"/>
	<path id="Shape2DView_nwe0019" class="st0" d="M13.1-161.8v26.9"/>
	<path id="Shape2DView_nwe0020" class="st0" d="M574.3-162.3h-5.2"/>
	<path id="Shape2DView_nwe0021" class="st0" d="M13.1-134.9c0.2,0.1,0.3,0.4,0.1,0.6s-0.4,0.3-0.6,0.1c-0.1,0-0.1-0.1-0.1-0.1"/>
	<path id="Shape2DView_nwe0022" class="st0" d="M568.3-162.1c0-0.2,0.2-0.4,0.4-0.4c0.1,0,0.3,0.1,0.3,0.2"/>
	<path id="Shape2DView_nwe0023" class="st0" d="M12.6-134.4H7.4"/>
	<path id="Shape2DView_nwe0024" class="st0" d="M568.5-161.8c-0.1-0.1-0.2-0.2-0.2-0.3"/>
	<path id="Shape2DView_nwe0025" class="st0" d="M7.4-88.8v-45.5"/>
	<path id="Shape2DView_nwe0026" class="st0" d="M568.5-161.8v26.9"/>
	<path id="Shape2DView_nwe0027" class="st0" d="M574.3-88.8H7.4"/>
	<path id="Shape2DView_nwe0028" class="st0" d="M568.3-134.6c0-0.1,0.1-0.3,0.2-0.3"/>
	<path id="Shape2DView_nwe0029" class="st0" d="M574.3-134.4v45.5"/>
	<path id="Shape2DView_nwe0030" class="st0" d="M569.1-134.4c-0.1,0.2-0.4,0.3-0.6,0.1c-0.1-0.1-0.2-0.2-0.2-0.3"/>
	<path id="Shape2DView_nwe0031" class="st0" d="M574.3-134.4h-5.2"/>
	<circle class="st0" cx="27.2" cy="-295.8" r="4.4"/>
	<circle class="st0" cx="554.5" cy="-295.8" r="4.4"/>
	<circle class="st0" cx="27.2" cy="-108.7" r="4.4"/>
	<circle class="st0" cx="554.5" cy="-108.7" r="4.4"/>
</g>
<g id="Shape2DView001" transform="translate(4.020000,172.020000) scale(1,-1)">
	<path id="Shape2DView001_nwe0000" class="st0" d="M7.4-429v22.9"/>
	<path id="Shape2DView001_nwe0001" class="st0" d="M574.3-429H7.4"/>
	<path id="Shape2DView001_nwe0002" class="st0" d="M574.3-406.1V-429"/>
	<path id="Shape2DView001_nwe0003" class="st0" d="M569.1-406.1h5.2"/>
	<path id="Shape2DView001_nwe0004" class="st0" d="M7.4-406.1h5.2"/>
	<path id="Shape2DView001_nwe0005" class="st0" d="M569.1-406.1c-0.1-0.2-0.4-0.3-0.6-0.1c-0.2,0.1-0.3,0.4-0.1,0.6
		c0,0.1,0.1,0.1,0.1,0.1"/>
	<path id="Shape2DView001_nwe0006" class="st0" d="M13.3-405.9c0-0.2-0.2-0.4-0.4-0.4c-0.1,0-0.3,0.1-0.3,0.2"/>
	<path id="Shape2DView001_nwe0007" class="st0" d="M568.5-405.6v26.9"/>
	<path id="Shape2DView001_nwe0008" class="st0" d="M13.1-405.6c0.1-0.1,0.2-0.2,0.2-0.3"/>
	<path id="Shape2DView001_nwe0009" class="st0" d="M568.5-378.7c-0.2,0.1-0.3,0.4-0.1,0.6c0.1,0.2,0.4,0.3,0.6,0.1
		c0.1,0,0.1-0.1,0.1-0.1"/>
	<path id="Shape2DView001_nwe0010" class="st0" d="M13.1-405.6v26.9"/>
	<path id="Shape2DView001_nwe0011" class="st0" d="M569.1-378.1h5.2"/>
	<path id="Shape2DView001_nwe0012" class="st0" d="M13.3-378.3c0-0.1-0.1-0.3-0.2-0.3"/>
	<path id="Shape2DView001_nwe0013" class="st0" d="M574.3-355.3v-22.9"/>
	<path id="Shape2DView001_nwe0014" class="st0" d="M12.6-378.1c0.1,0.2,0.4,0.3,0.6,0.1c0.1-0.1,0.2-0.2,0.2-0.3"/>
	<path id="Shape2DView001_nwe0015" class="st0" d="M7.4-355.3h566.9"/>
	<path id="Shape2DView001_nwe0016" class="st0" d="M7.4-378.1h5.2"/>
	<path id="Shape2DView001_nwe0017" class="st0" d="M7.4-378.1v22.9"/>
	<path id="Shape2DView001_nwe0018" class="st0" d="M95.2-373v-38.3"/>
	<path id="Shape2DView001_nwe0019" class="st0" d="M95.2-411.3H41.4"/>
	<path id="Shape2DView001_nwe0020" class="st0" d="M41.4-411.3v38.3"/>
	<path id="Shape2DView001_nwe0021" class="st0" d="M41.4-373h53.9"/>
	<path id="Shape2DView001_nwe0022" class="st0" d="M309.3-395c6.3,0,11.3-5.1,11.3-11.3c0-6.3-5.1-11.3-11.3-11.3"/>
	<path id="Shape2DView001_nwe0023" class="st0" d="M309.3-395h-36.9"/>
	<path id="Shape2DView001_nwe0024" class="st0" d="M309.3-417.6h-36.9"/>
	<path id="Shape2DView001_nwe0025" class="st0" d="M272.4-417.6c-6.3,0-11.3,5.1-11.3,11.3c0,6.3,5.1,11.3,11.3,11.3"/>
</g>
<g id="Shape2DView002" transform="translate(4.020000,172.020000) scale(1,-1)">
	<path id="Shape2DView002_nwe0000" class="st0" d="M574.3-60.5v226.8"/>
	<path id="Shape2DView002_nwe0001" class="st0" d="M7.4-60.5h566.9"/>
	<path id="Shape2DView002_nwe0002" class="st0" d="M574.3,166.3H7.4"/>
	<path id="Shape2DView002_nwe0003" class="st0" d="M7.4,166.3V-60.5"/>
	<circle class="st0" cx="27.2" cy="-40.6" r="4.4"/>
	<circle class="st0" cx="120.8" cy="4.7" r="17"/>
	<circle class="st0" cx="257.5" cy="15.9" r="5.7"/>
	<circle class="st0" cx="554.5" cy="-40.6" r="4.4"/>
	<circle class="st0" cx="324.1" cy="15.9" r="5.7"/>
	<circle class="st0" cx="72.6" cy="52.9" r="17"/>
	<circle class="st0" cx="120.8" cy="52.9" r="17"/>
	<circle class="st0" cx="120.8" cy="101.1" r="17"/>
	<circle class="st0" cx="169" cy="52.9" r="17"/>
	<circle class="st0" cx="257.5" cy="83.4" r="5.7"/>
	<circle class="st0" cx="27.2" cy="146.5" r="4.4"/>
	<path id="Shape2DView002_nwe0015" class="st0" d="M253,74.9h75.7"/>
	<path id="Shape2DView002_nwe0016" class="st0" d="M253,30.9v43.9"/>
	<path id="Shape2DView002_nwe0017" class="st0" d="M328.7,74.9V30.9"/>
	<path id="Shape2DView002_nwe0018" class="st0" d="M328.7,30.9H253"/>
	<circle class="st0" cx="324.1" cy="83.4" r="5.7"/>
	<circle class="st0" cx="554.5" cy="146.5" r="4.4"/>
</g>
<g id="Shape2DView003" transform="translate(4.020000,172.020000) scale(1,-1)">
	<path id="Shape2DView003_nwe0000" class="st0" d="M506.3-536.7v22.5"/>
	<path id="Shape2DView003_nwe0001" class="st0" d="M506.3-514.2h5.7"/>
	<path id="Shape2DView003_nwe0002" class="st0" d="M466.8-536.7h39.5"/>
	<path id="Shape2DView003_nwe0003" class="st0" d="M511.9-485.5v-28.7"/>
	<path id="Shape2DView003_nwe0004" class="st0" d="M466.8-536.7v-5.7"/>
	<path id="Shape2DView003_nwe0005" class="st0" d="M506.3-485.5h5.7"/>
	<path id="Shape2DView003_nwe0006" class="st0" d="M506.3-485.5v22.5"/>
	<path id="Shape2DView003_nwe0007" class="st0" d="M506.3-463H290.8"/>
	<path id="Shape2DView003_nwe0008" class="st0" d="M290.8-463v-22.5"/>
	<path id="Shape2DView003_nwe0009" class="st0" d="M290.8-485.5h-5.7"/>
	<path id="Shape2DView003_nwe0010" class="st0" d="M285.2-514.2v28.7"/>
	<path id="Shape2DView003_nwe0011" class="st0" d="M290.8-514.2h-5.7"/>
	<path id="Shape2DView003_nwe0012" class="st0" d="M290.8-514.2v-22.5"/>
	<path id="Shape2DView003_nwe0013" class="st0" d="M290.8-536.7h39.5"/>
	<path id="Shape2DView003_nwe0014" class="st0" d="M330.3-536.7v-5.7"/>
	<path id="Shape2DView003_nwe0015" class="st0" d="M359.1-542.4h-28.7"/>
	<path id="Shape2DView003_nwe0016" class="st0" d="M359.1-536.7v-5.7"/>
	<path id="Shape2DView003_nwe0017" class="st0" d="M359.1-536.7h79"/>
	<path id="Shape2DView003_nwe0018" class="st0" d="M438.1-536.7v-5.7"/>
	<path id="Shape2DView003_nwe0019" class="st0" d="M466.8-542.4h-28.7"/>
</g>
<g id="Shape2DView004" transform="translate(4.020000,172.020000) scale(1,-1)">
	<path id="Shape2DView004_nwe0000" class="st0" d="M242.7-536.7v22.5"/>
	<path id="Shape2DView004_nwe0001" class="st0" d="M242.7-514.2h5.7"/>
	<path id="Shape2DView004_nwe0002" class="st0" d="M203.2-536.7h39.5"/>
	<path id="Shape2DView004_nwe0003" class="st0" d="M248.3-485.5v-28.7"/>
	<path id="Shape2DView004_nwe0004" class="st0" d="M203.2-536.7v-5.7"/>
	<path id="Shape2DView004_nwe0005" class="st0" d="M242.7-485.5h5.7"/>
	<path id="Shape2DView004_nwe0006" class="st0" d="M242.7-485.5v22.5"/>
	<path id="Shape2DView004_nwe0007" class="st0" d="M242.7-463H27.2"/>
	<path id="Shape2DView004_nwe0008" class="st0" d="M27.2-463v-22.5"/>
	<path id="Shape2DView004_nwe0009" class="st0" d="M27.2-485.5h-5.7"/>
	<path id="Shape2DView004_nwe0010" class="st0" d="M21.5-514.2v28.7"/>
	<path id="Shape2DView004_nwe0011" class="st0" d="M27.2-514.2h-5.7"/>
	<path id="Shape2DView004_nwe0012" class="st0" d="M27.2-514.2v-22.5"/>
	<path id="Shape2DView004_nwe0013" class="st0" d="M27.2-536.7h39.5"/>
	<path id="Shape2DView004_nwe0014" class="st0" d="M66.7-536.7v-5.7"/>
	<path id="Shape2DView004_nwe0015" class="st0" d="M95.4-542.4H66.7"/>
	<path id="Shape2DView004_nwe0016" class="st0" d="M95.4-536.7v-5.7"/>
	<path id="Shape2DView004_nwe0017" class="st0" d="M95.4-536.7h79"/>
	<path id="Shape2DView004_nwe0018" class="st0" d="M174.4-536.7v-5.7"/>
	<path id="Shape2DView004_nwe0019" class="st0" d="M203.2-542.4h-28.7"/>
</g>
<g id="Shape2DView005" transform="translate(4.020000,172.020000) scale(1,-1)">
	<path id="Shape2DView005_nwe0000" class="st0" d="M1.7-655.8v22.9"/>
	<path id="Shape2DView005_nwe0001" class="st0" d="M568.6-655.8H1.7"/>
	<path id="Shape2DView005_nwe0002" class="st0" d="M568.6-632.9v-22.9"/>
	<path id="Shape2DView005_nwe0003" class="st0" d="M563.4-632.9h5.2"/>
	<path id="Shape2DView005_nwe0004" class="st0" d="M562.9-632.3c-0.2-0.1-0.3-0.4-0.1-0.6c0.1-0.2,0.4-0.3,0.6-0.1
		c0.1,0,0.1,0.1,0.1,0.1"/>
	<path id="Shape2DView005_nwe0005" class="st0" d="M562.9-605.5v-26.9"/>
	<path id="Shape2DView005_nwe0006" class="st0" d="M563.4-604.9c-0.1,0.2-0.4,0.3-0.6,0.1c-0.2-0.1-0.3-0.4-0.1-0.6
		c0-0.1,0.1-0.1,0.1-0.1"/>
	<path id="Shape2DView005_nwe0007" class="st0" d="M563.4-604.9h5.2"/>
	<path id="Shape2DView005_nwe0008" class="st0" d="M568.6-582.1v-22.9"/>
	<path id="Shape2DView005_nwe0009" class="st0" d="M1.7-582.1h566.9"/>
	<path id="Shape2DView005_nwe0010" class="st0" d="M1.7-604.9v22.9"/>
	<path id="Shape2DView005_nwe0011" class="st0" d="M1.7-604.9h5.2"/>
	<path id="Shape2DView005_nwe0012" class="st0" d="M7.7-605.1c0,0.2-0.2,0.4-0.4,0.4c-0.1,0-0.3-0.1-0.3-0.2"/>
	<path id="Shape2DView005_nwe0013" class="st0" d="M7.5-605.5c0.1,0.1,0.2,0.2,0.2,0.3"/>
	<path id="Shape2DView005_nwe0014" class="st0" d="M7.5-605.5v-26.9"/>
	<path id="Shape2DView005_nwe0015" class="st0" d="M7.7-632.7c0,0.1-0.1,0.3-0.2,0.3"/>
	<path id="Shape2DView005_nwe0016" class="st0" d="M6.9-632.9c0.1-0.2,0.4-0.3,0.6-0.1c0.1,0.1,0.2,0.2,0.2,0.3"/>
	<path id="Shape2DView005_nwe0017" class="st0" d="M1.7-632.9h5.2"/>
</g>
</svg>
