%TF.GenerationSoftware,KiCad,Pcbnew,8.0.6*%
%TF.CreationDate,2024-12-02T04:17:18+07:00*%
%TF.ProjectId,PCB,5043422e-6b69-4636-9164-5f7063625858,rev?*%
%TF.SameCoordinates,Original*%
%TF.FileFunction,Copper,L2,Inr*%
%TF.FilePolarity,Positive*%
%FSLAX46Y46*%
G04 Gerber Fmt 4.6, Leading zero omitted, Abs format (unit mm)*
G04 Created by KiCad (PCBNEW 8.0.6) date 2024-12-02 04:17:18*
%MOMM*%
%LPD*%
G01*
G04 APERTURE LIST*
%TA.AperFunction,ComponentPad*%
%ADD10R,1.700000X1.700000*%
%TD*%
%TA.AperFunction,ComponentPad*%
%ADD11O,1.700000X1.700000*%
%TD*%
%TA.AperFunction,ComponentPad*%
%ADD12O,1.000000X1.800000*%
%TD*%
%TA.AperFunction,ComponentPad*%
%ADD13O,1.000000X2.100000*%
%TD*%
%TA.AperFunction,ViaPad*%
%ADD14C,0.604799*%
%TD*%
%TA.AperFunction,Conductor*%
%ADD15C,0.250000*%
%TD*%
G04 APERTURE END LIST*
D10*
%TO.N,/GPIO46*%
%TO.C,U4*%
X135500000Y-32920000D03*
D11*
%TO.N,GND*%
X135500000Y-35460000D03*
%TO.N,+3V3*%
X135500000Y-38000000D03*
%TD*%
D10*
%TO.N,GND*%
%TO.C,U3*%
X135500000Y-65960000D03*
D11*
%TO.N,+3V3*%
X135500000Y-68500000D03*
%TO.N,/I2C_SDA*%
X135500000Y-71040000D03*
%TO.N,/I2C_SCL*%
X135500000Y-73580000D03*
%TD*%
%TO.N,+3V3*%
%TO.C,J5*%
X101500000Y-61400000D03*
%TO.N,/GPIO14*%
X98960000Y-61400000D03*
%TO.N,/GPIO13*%
X101500000Y-58860000D03*
%TO.N,/GPIO12*%
X98960000Y-58860000D03*
%TO.N,/GPIO11*%
X101500000Y-56320000D03*
%TO.N,/GPIO10*%
X98960000Y-56320000D03*
%TO.N,/GPIO9*%
X101500000Y-53780000D03*
%TO.N,/GPIO8*%
X98960000Y-53780000D03*
%TO.N,/GPIO7*%
X101500000Y-51240000D03*
%TO.N,/GPIO6*%
X98960000Y-51240000D03*
%TO.N,/GPIO5*%
X101500000Y-48700000D03*
%TO.N,/GPIO4*%
X98960000Y-48700000D03*
%TO.N,/GPIO3*%
X101500000Y-46160000D03*
%TO.N,/GPIO2*%
X98960000Y-46160000D03*
%TO.N,/GPIO1*%
X101500000Y-43620000D03*
%TO.N,/GPIO48*%
X98960000Y-43620000D03*
%TO.N,/GPIO47*%
X101500000Y-41080000D03*
%TO.N,GND*%
X98960000Y-41080000D03*
X101500000Y-38540000D03*
%TO.N,/GPIO42*%
X98960000Y-38540000D03*
%TO.N,/GPIO41*%
X101500000Y-36000000D03*
%TO.N,/GPIO40*%
X98960000Y-36000000D03*
%TO.N,/GPIO39*%
X101500000Y-33460000D03*
%TO.N,/GPIO38*%
X98960000Y-33460000D03*
%TO.N,GND*%
X101500000Y-30920000D03*
X98960000Y-30920000D03*
%TO.N,/RXD*%
X101500000Y-28380000D03*
%TO.N,/TXD*%
X98960000Y-28380000D03*
%TO.N,/GPIO26*%
X101500000Y-25840000D03*
D10*
%TO.N,/GPIO21*%
X98960000Y-25840000D03*
%TD*%
%TO.N,VBUS*%
%TO.C,J2*%
X112000000Y-82500000D03*
D11*
%TO.N,GND*%
X109460000Y-82500000D03*
%TD*%
%TO.N,Net-(D3-A)*%
%TO.C,D3*%
X135525000Y-27790000D03*
D10*
%TO.N,GND*%
X135525000Y-25250000D03*
%TD*%
%TO.N,VBAT*%
%TO.C,J4*%
X126750000Y-82475000D03*
D11*
%TO.N,GND*%
X129290000Y-82475000D03*
%TD*%
D12*
%TO.N,GND*%
%TO.C,JUSB1*%
X123640000Y-86255000D03*
D13*
X123640000Y-82075000D03*
D12*
X115000000Y-86255000D03*
D13*
X115000000Y-82075000D03*
%TD*%
D10*
%TO.N,+3V3*%
%TO.C,J1*%
X135500000Y-41800000D03*
D11*
%TO.N,GND*%
X135500000Y-44340000D03*
%TO.N,+3V3*%
X135500000Y-46880000D03*
%TO.N,GND*%
X135500000Y-49420000D03*
%TO.N,+3V3*%
X135500000Y-51960000D03*
%TO.N,GND*%
X135500000Y-54500000D03*
%TO.N,+3V3*%
X135500000Y-57040000D03*
%TO.N,GND*%
X135500000Y-59580000D03*
%TD*%
D14*
%TO.N,GND*%
X118400000Y-26600000D03*
%TO.N,/GPIO41*%
X115000000Y-32800000D03*
%TO.N,/GPIO42*%
X123200000Y-31600000D03*
%TO.N,/GPIO38*%
X113000001Y-34400001D03*
%TO.N,/GPIO40*%
X115600000Y-33800000D03*
%TO.N,/GPIO39*%
X113800000Y-33460000D03*
%TO.N,/GPIO42*%
X113000000Y-32335140D03*
%TO.N,GND*%
X111400000Y-42600000D03*
%TO.N,/RXD*%
X115008184Y-29791816D03*
%TO.N,/TXD*%
X114191816Y-31408184D03*
%TO.N,GND*%
X106600000Y-69800000D03*
X111200000Y-59200000D03*
X131000000Y-47600000D03*
X131000000Y-55800000D03*
X116600000Y-49000000D03*
X117400000Y-63200000D03*
X121000000Y-74800000D03*
X111800000Y-75200000D03*
%TO.N,/GPIO38*%
X123200000Y-34900000D03*
%TO.N,/GPIO39*%
X123200000Y-34000000D03*
%TO.N,/GPIO40*%
X123200000Y-33200000D03*
%TO.N,/GPIO41*%
X123200000Y-32400000D03*
%TO.N,/TXD*%
X123200000Y-30600000D03*
%TO.N,/RXD*%
X123200000Y-29800000D03*
%TO.N,+3V3*%
X127800000Y-35600000D03*
%TO.N,/GPIO47*%
X121777259Y-37600000D03*
%TO.N,/GPIO48*%
X124200000Y-37200000D03*
%TO.N,+3V3*%
X115800000Y-27400000D03*
%TO.N,/GPIO21*%
X120335940Y-35600000D03*
%TO.N,/GPIO26*%
X121200000Y-35000000D03*
%TO.N,GND*%
X118200000Y-67800000D03*
%TO.N,/I2C_SDA*%
X117600000Y-37000000D03*
%TO.N,/I2C_SCL*%
X116600000Y-37000000D03*
%TO.N,GND*%
X124400000Y-39800000D03*
%TO.N,/GPIO33*%
X125422670Y-41750688D03*
X115250000Y-65250000D03*
%TO.N,/GPIO35*%
X126250000Y-40500000D03*
X117400000Y-67600000D03*
%TO.N,/GPIO36*%
X127000000Y-38250000D03*
%TO.N,/GPIO37*%
X127400000Y-37600000D03*
%TO.N,/GPIO36*%
X115750000Y-73500000D03*
%TO.N,/GPIO37*%
X115750000Y-76000000D03*
%TO.N,/I2C_SCL*%
X121000000Y-42400000D03*
%TO.N,/I2C_SDA*%
X121800000Y-42400000D03*
%TO.N,/GPIO34*%
X116600000Y-67400000D03*
X125500000Y-41000000D03*
%TD*%
D15*
%TO.N,/GPIO41*%
X115400000Y-32400000D02*
X123200000Y-32400000D01*
X115000000Y-32800000D02*
X115400000Y-32400000D01*
%TO.N,/GPIO40*%
X116200000Y-33200000D02*
X123200000Y-33200000D01*
X115600000Y-33800000D02*
X116200000Y-33200000D01*
%TO.N,/GPIO39*%
X115160891Y-34577260D02*
X119822740Y-34577260D01*
X119822740Y-34577260D02*
X120400000Y-34000000D01*
X120400000Y-34000000D02*
X123200000Y-34000000D01*
X113800000Y-33460000D02*
X114043631Y-33460000D01*
X114043631Y-33460000D02*
X115160891Y-34577260D01*
%TO.N,/GPIO38*%
X122722741Y-34422741D02*
X123200000Y-34900000D01*
X119822740Y-35177260D02*
X120577259Y-34422741D01*
X113000001Y-34400001D02*
X113777260Y-35177260D01*
X120577259Y-34422741D02*
X122722741Y-34422741D01*
X113777260Y-35177260D02*
X119822740Y-35177260D01*
%TO.N,/GPIO42*%
X122977259Y-31822741D02*
X123200000Y-31600000D01*
X114593629Y-31822741D02*
X122977259Y-31822741D01*
X114081230Y-32335140D02*
X114593629Y-31822741D01*
X113000000Y-32335140D02*
X114081230Y-32335140D01*
%TO.N,/TXD*%
X122365488Y-30600000D02*
X123200000Y-30600000D01*
X115216370Y-31400000D02*
X121565488Y-31400000D01*
X121565488Y-31400000D02*
X122365488Y-30600000D01*
X115208186Y-31408184D02*
X115216370Y-31400000D01*
X114191816Y-31408184D02*
X115208186Y-31408184D01*
%TO.N,/RXD*%
X116000000Y-29800000D02*
X123200000Y-29800000D01*
X115991816Y-29791816D02*
X116000000Y-29800000D01*
X115008184Y-29791816D02*
X115991816Y-29791816D01*
%TD*%
%TA.AperFunction,Conductor*%
%TO.N,GND*%
G36*
X101034075Y-30727007D02*
G01*
X101000000Y-30854174D01*
X101000000Y-30985826D01*
X101034075Y-31112993D01*
X101066988Y-31170000D01*
X99393012Y-31170000D01*
X99425925Y-31112993D01*
X99460000Y-30985826D01*
X99460000Y-30854174D01*
X99425925Y-30727007D01*
X99393012Y-30670000D01*
X101066988Y-30670000D01*
X101034075Y-30727007D01*
G37*
%TD.AperFunction*%
%TA.AperFunction,Conductor*%
G36*
X137001509Y-18000037D02*
G01*
X137007232Y-18000177D01*
X137087583Y-18002145D01*
X137108728Y-18004490D01*
X137279013Y-18038362D01*
X137302261Y-18045413D01*
X137461257Y-18111272D01*
X137482692Y-18122730D01*
X137625775Y-18218335D01*
X137644565Y-18233756D01*
X137766243Y-18355434D01*
X137781664Y-18374224D01*
X137877269Y-18517307D01*
X137888728Y-18538745D01*
X137954583Y-18697731D01*
X137961639Y-18720993D01*
X137995508Y-18891266D01*
X137997854Y-18912420D01*
X137999962Y-18998476D01*
X137999999Y-19001539D01*
X137985786Y-87984753D01*
X137985768Y-87986834D01*
X137983491Y-88120845D01*
X137982247Y-88136384D01*
X137943957Y-88402709D01*
X137940196Y-88419997D01*
X137864695Y-88677136D01*
X137858513Y-88693713D01*
X137747177Y-88937507D01*
X137738697Y-88953035D01*
X137593811Y-89178482D01*
X137583209Y-89192646D01*
X137407702Y-89395192D01*
X137395192Y-89407702D01*
X137192646Y-89583209D01*
X137178482Y-89593811D01*
X136953035Y-89738697D01*
X136937507Y-89747177D01*
X136693713Y-89858513D01*
X136677136Y-89864695D01*
X136419997Y-89940196D01*
X136402709Y-89943957D01*
X136136384Y-89982247D01*
X136120844Y-89983491D01*
X135986823Y-89985768D01*
X135984763Y-89985786D01*
X98001071Y-89999998D01*
X97998918Y-89999980D01*
X97864942Y-89997703D01*
X97849402Y-89996459D01*
X97583078Y-89958168D01*
X97565790Y-89954407D01*
X97308644Y-89878902D01*
X97292068Y-89872719D01*
X97048287Y-89761388D01*
X97032764Y-89752912D01*
X96807292Y-89608011D01*
X96793149Y-89597423D01*
X96590598Y-89421911D01*
X96578088Y-89409401D01*
X96544686Y-89370853D01*
X96402574Y-89206848D01*
X96391990Y-89192709D01*
X96247083Y-88967230D01*
X96238611Y-88951712D01*
X96127280Y-88707931D01*
X96121097Y-88691355D01*
X96045592Y-88434209D01*
X96041831Y-88416921D01*
X96003540Y-88150597D01*
X96002296Y-88135058D01*
X96002187Y-88128655D01*
X96000016Y-88000939D01*
X96000000Y-87999068D01*
X96000000Y-85756504D01*
X114000000Y-85756504D01*
X114000000Y-86005000D01*
X114700000Y-86005000D01*
X114700000Y-86505000D01*
X114000000Y-86505000D01*
X114000000Y-86753495D01*
X114038427Y-86946681D01*
X114038430Y-86946693D01*
X114113807Y-87128671D01*
X114113814Y-87128684D01*
X114223248Y-87292462D01*
X114223251Y-87292466D01*
X114362533Y-87431748D01*
X114362537Y-87431751D01*
X114526315Y-87541185D01*
X114526328Y-87541192D01*
X114708308Y-87616569D01*
X114750000Y-87624862D01*
X114750000Y-86821988D01*
X114759940Y-86839205D01*
X114815795Y-86895060D01*
X114884204Y-86934556D01*
X114960504Y-86955000D01*
X115039496Y-86955000D01*
X115115796Y-86934556D01*
X115184205Y-86895060D01*
X115240060Y-86839205D01*
X115250000Y-86821988D01*
X115250000Y-87624862D01*
X115291690Y-87616569D01*
X115291692Y-87616569D01*
X115473671Y-87541192D01*
X115473684Y-87541185D01*
X115637462Y-87431751D01*
X115637466Y-87431748D01*
X115776748Y-87292466D01*
X115776751Y-87292462D01*
X115886185Y-87128684D01*
X115886192Y-87128671D01*
X115961569Y-86946693D01*
X115961572Y-86946681D01*
X115999999Y-86753495D01*
X116000000Y-86753492D01*
X116000000Y-86505000D01*
X115300000Y-86505000D01*
X115300000Y-86005000D01*
X116000000Y-86005000D01*
X116000000Y-85756508D01*
X115999999Y-85756504D01*
X122640000Y-85756504D01*
X122640000Y-86005000D01*
X123340000Y-86005000D01*
X123340000Y-86505000D01*
X122640000Y-86505000D01*
X122640000Y-86753495D01*
X122678427Y-86946681D01*
X122678430Y-86946693D01*
X122753807Y-87128671D01*
X122753814Y-87128684D01*
X122863248Y-87292462D01*
X122863251Y-87292466D01*
X123002533Y-87431748D01*
X123002537Y-87431751D01*
X123166315Y-87541185D01*
X123166328Y-87541192D01*
X123348308Y-87616569D01*
X123390000Y-87624862D01*
X123390000Y-86821988D01*
X123399940Y-86839205D01*
X123455795Y-86895060D01*
X123524204Y-86934556D01*
X123600504Y-86955000D01*
X123679496Y-86955000D01*
X123755796Y-86934556D01*
X123824205Y-86895060D01*
X123880060Y-86839205D01*
X123890000Y-86821988D01*
X123890000Y-87624862D01*
X123931690Y-87616569D01*
X123931692Y-87616569D01*
X124113671Y-87541192D01*
X124113684Y-87541185D01*
X124277462Y-87431751D01*
X124277466Y-87431748D01*
X124416748Y-87292466D01*
X124416751Y-87292462D01*
X124526185Y-87128684D01*
X124526192Y-87128671D01*
X124601569Y-86946693D01*
X124601572Y-86946681D01*
X124639999Y-86753495D01*
X124640000Y-86753492D01*
X124640000Y-86505000D01*
X123940000Y-86505000D01*
X123940000Y-86005000D01*
X124640000Y-86005000D01*
X124640000Y-85756508D01*
X124639999Y-85756504D01*
X124601572Y-85563318D01*
X124601569Y-85563306D01*
X124526192Y-85381328D01*
X124526185Y-85381315D01*
X124416751Y-85217537D01*
X124416748Y-85217533D01*
X124277466Y-85078251D01*
X124277462Y-85078248D01*
X124113684Y-84968814D01*
X124113671Y-84968807D01*
X123931691Y-84893429D01*
X123931683Y-84893427D01*
X123890000Y-84885135D01*
X123890000Y-85688011D01*
X123880060Y-85670795D01*
X123824205Y-85614940D01*
X123755796Y-85575444D01*
X123679496Y-85555000D01*
X123600504Y-85555000D01*
X123524204Y-85575444D01*
X123455795Y-85614940D01*
X123399940Y-85670795D01*
X123390000Y-85688011D01*
X123390000Y-84885136D01*
X123389999Y-84885135D01*
X123348316Y-84893427D01*
X123348308Y-84893429D01*
X123166328Y-84968807D01*
X123166315Y-84968814D01*
X123002537Y-85078248D01*
X123002533Y-85078251D01*
X122863251Y-85217533D01*
X122863248Y-85217537D01*
X122753814Y-85381315D01*
X122753807Y-85381328D01*
X122678430Y-85563306D01*
X122678427Y-85563318D01*
X122640000Y-85756504D01*
X115999999Y-85756504D01*
X115961572Y-85563318D01*
X115961569Y-85563306D01*
X115886192Y-85381328D01*
X115886185Y-85381315D01*
X115776751Y-85217537D01*
X115776748Y-85217533D01*
X115637466Y-85078251D01*
X115637462Y-85078248D01*
X115473684Y-84968814D01*
X115473671Y-84968807D01*
X115291691Y-84893429D01*
X115291683Y-84893427D01*
X115250000Y-84885135D01*
X115250000Y-85688011D01*
X115240060Y-85670795D01*
X115184205Y-85614940D01*
X115115796Y-85575444D01*
X115039496Y-85555000D01*
X114960504Y-85555000D01*
X114884204Y-85575444D01*
X114815795Y-85614940D01*
X114759940Y-85670795D01*
X114750000Y-85688011D01*
X114750000Y-84885136D01*
X114749999Y-84885135D01*
X114708316Y-84893427D01*
X114708308Y-84893429D01*
X114526328Y-84968807D01*
X114526315Y-84968814D01*
X114362537Y-85078248D01*
X114362533Y-85078251D01*
X114223251Y-85217533D01*
X114223248Y-85217537D01*
X114113814Y-85381315D01*
X114113807Y-85381328D01*
X114038430Y-85563306D01*
X114038427Y-85563318D01*
X114000000Y-85756504D01*
X96000000Y-85756504D01*
X96000000Y-82249999D01*
X108129364Y-82249999D01*
X108129364Y-82250000D01*
X109026988Y-82250000D01*
X108994075Y-82307007D01*
X108960000Y-82434174D01*
X108960000Y-82565826D01*
X108994075Y-82692993D01*
X109026988Y-82750000D01*
X108129364Y-82750000D01*
X108186567Y-82963486D01*
X108186570Y-82963492D01*
X108286399Y-83177578D01*
X108421894Y-83371082D01*
X108588917Y-83538105D01*
X108782421Y-83673600D01*
X108996507Y-83773429D01*
X108996516Y-83773433D01*
X109210000Y-83830634D01*
X109210000Y-82933012D01*
X109267007Y-82965925D01*
X109394174Y-83000000D01*
X109525826Y-83000000D01*
X109652993Y-82965925D01*
X109710000Y-82933012D01*
X109710000Y-83830633D01*
X109923483Y-83773433D01*
X109923492Y-83773429D01*
X110137578Y-83673600D01*
X110331078Y-83538108D01*
X110453133Y-83416053D01*
X110514456Y-83382568D01*
X110584148Y-83387552D01*
X110640082Y-83429423D01*
X110656997Y-83460401D01*
X110706202Y-83592328D01*
X110706206Y-83592335D01*
X110792452Y-83707544D01*
X110792455Y-83707547D01*
X110907664Y-83793793D01*
X110907671Y-83793797D01*
X111042517Y-83844091D01*
X111042516Y-83844091D01*
X111049444Y-83844835D01*
X111102127Y-83850500D01*
X112897872Y-83850499D01*
X112957483Y-83844091D01*
X113092331Y-83793796D01*
X113207546Y-83707546D01*
X113293796Y-83592331D01*
X113344091Y-83457483D01*
X113350500Y-83397873D01*
X113350499Y-81602128D01*
X113344091Y-81542517D01*
X113343002Y-81539598D01*
X113300821Y-81426504D01*
X114000000Y-81426504D01*
X114000000Y-81825000D01*
X114700000Y-81825000D01*
X114700000Y-82325000D01*
X114000000Y-82325000D01*
X114000000Y-82723495D01*
X114038427Y-82916681D01*
X114038430Y-82916693D01*
X114113807Y-83098671D01*
X114113814Y-83098684D01*
X114223248Y-83262462D01*
X114223251Y-83262466D01*
X114362533Y-83401748D01*
X114362537Y-83401751D01*
X114526315Y-83511185D01*
X114526328Y-83511192D01*
X114708308Y-83586569D01*
X114750000Y-83594862D01*
X114750000Y-82791988D01*
X114759940Y-82809205D01*
X114815795Y-82865060D01*
X114884204Y-82904556D01*
X114960504Y-82925000D01*
X115039496Y-82925000D01*
X115115796Y-82904556D01*
X115184205Y-82865060D01*
X115240060Y-82809205D01*
X115250000Y-82791988D01*
X115250000Y-83594862D01*
X115291690Y-83586569D01*
X115291692Y-83586569D01*
X115473671Y-83511192D01*
X115473684Y-83511185D01*
X115637462Y-83401751D01*
X115637466Y-83401748D01*
X115776748Y-83262466D01*
X115776751Y-83262462D01*
X115886185Y-83098684D01*
X115886191Y-83098672D01*
X115929878Y-82993202D01*
X115973718Y-82938798D01*
X116040012Y-82916733D01*
X116107712Y-82934012D01*
X116132120Y-82952973D01*
X116136562Y-82957415D01*
X116245537Y-83020332D01*
X116367083Y-83052900D01*
X116367085Y-83052900D01*
X116492915Y-83052900D01*
X116492917Y-83052900D01*
X116614463Y-83020332D01*
X116723438Y-82957415D01*
X116812415Y-82868438D01*
X116875332Y-82759463D01*
X116907900Y-82637917D01*
X116907900Y-82512083D01*
X121732100Y-82512083D01*
X121732100Y-82637916D01*
X121764668Y-82759464D01*
X121792118Y-82807007D01*
X121827585Y-82868438D01*
X121916562Y-82957415D01*
X122025537Y-83020332D01*
X122147083Y-83052900D01*
X122147085Y-83052900D01*
X122272915Y-83052900D01*
X122272917Y-83052900D01*
X122394463Y-83020332D01*
X122503438Y-82957415D01*
X122507878Y-82952974D01*
X122569196Y-82919489D01*
X122638888Y-82924470D01*
X122694823Y-82966339D01*
X122710121Y-82993201D01*
X122753809Y-83098675D01*
X122753814Y-83098684D01*
X122863248Y-83262462D01*
X122863251Y-83262466D01*
X123002533Y-83401748D01*
X123002537Y-83401751D01*
X123166315Y-83511185D01*
X123166328Y-83511192D01*
X123348308Y-83586569D01*
X123390000Y-83594862D01*
X123390000Y-82791988D01*
X123399940Y-82809205D01*
X123455795Y-82865060D01*
X123524204Y-82904556D01*
X123600504Y-82925000D01*
X123679496Y-82925000D01*
X123755796Y-82904556D01*
X123824205Y-82865060D01*
X123880060Y-82809205D01*
X123890000Y-82791988D01*
X123890000Y-83594862D01*
X123931690Y-83586569D01*
X123931692Y-83586569D01*
X124113671Y-83511192D01*
X124113684Y-83511185D01*
X124277462Y-83401751D01*
X124277466Y-83401748D01*
X124416748Y-83262466D01*
X124416751Y-83262462D01*
X124526185Y-83098684D01*
X124526192Y-83098671D01*
X124601569Y-82916693D01*
X124601572Y-82916681D01*
X124639999Y-82723495D01*
X124640000Y-82723492D01*
X124640000Y-82325000D01*
X123940000Y-82325000D01*
X123940000Y-81825000D01*
X124640000Y-81825000D01*
X124640000Y-81577135D01*
X125399500Y-81577135D01*
X125399500Y-83372870D01*
X125399501Y-83372876D01*
X125405908Y-83432483D01*
X125456202Y-83567328D01*
X125456206Y-83567335D01*
X125542452Y-83682544D01*
X125542455Y-83682547D01*
X125657664Y-83768793D01*
X125657671Y-83768797D01*
X125792517Y-83819091D01*
X125792516Y-83819091D01*
X125799444Y-83819835D01*
X125852127Y-83825500D01*
X127647872Y-83825499D01*
X127707483Y-83819091D01*
X127842331Y-83768796D01*
X127957546Y-83682546D01*
X128043796Y-83567331D01*
X128054696Y-83538108D01*
X128083678Y-83460401D01*
X128093002Y-83435401D01*
X128134872Y-83379468D01*
X128200337Y-83355050D01*
X128268610Y-83369901D01*
X128296865Y-83391053D01*
X128418917Y-83513105D01*
X128612421Y-83648600D01*
X128826507Y-83748429D01*
X128826516Y-83748433D01*
X129040000Y-83805634D01*
X129040000Y-82908012D01*
X129097007Y-82940925D01*
X129224174Y-82975000D01*
X129355826Y-82975000D01*
X129482993Y-82940925D01*
X129540000Y-82908012D01*
X129540000Y-83805633D01*
X129753483Y-83748433D01*
X129753492Y-83748429D01*
X129967578Y-83648600D01*
X130161082Y-83513105D01*
X130328105Y-83346082D01*
X130463600Y-83152578D01*
X130563429Y-82938492D01*
X130563432Y-82938486D01*
X130620636Y-82725000D01*
X129723012Y-82725000D01*
X129755925Y-82667993D01*
X129790000Y-82540826D01*
X129790000Y-82409174D01*
X129755925Y-82282007D01*
X129723012Y-82225000D01*
X130620636Y-82225000D01*
X130620635Y-82224999D01*
X130563432Y-82011513D01*
X130563429Y-82011507D01*
X130463600Y-81797422D01*
X130463599Y-81797420D01*
X130328113Y-81603926D01*
X130328108Y-81603920D01*
X130161082Y-81436894D01*
X129967578Y-81301399D01*
X129753492Y-81201570D01*
X129753486Y-81201567D01*
X129540000Y-81144364D01*
X129540000Y-82041988D01*
X129482993Y-82009075D01*
X129355826Y-81975000D01*
X129224174Y-81975000D01*
X129097007Y-82009075D01*
X129040000Y-82041988D01*
X129040000Y-81144364D01*
X129039999Y-81144364D01*
X128826513Y-81201567D01*
X128826507Y-81201570D01*
X128612422Y-81301399D01*
X128612420Y-81301400D01*
X128418926Y-81436886D01*
X128296865Y-81558947D01*
X128235542Y-81592431D01*
X128165850Y-81587447D01*
X128109917Y-81545575D01*
X128093002Y-81514598D01*
X128043797Y-81382671D01*
X128043793Y-81382664D01*
X127957547Y-81267455D01*
X127957544Y-81267452D01*
X127842335Y-81181206D01*
X127842328Y-81181202D01*
X127707482Y-81130908D01*
X127707483Y-81130908D01*
X127647883Y-81124501D01*
X127647881Y-81124500D01*
X127647873Y-81124500D01*
X127647864Y-81124500D01*
X125852129Y-81124500D01*
X125852123Y-81124501D01*
X125792516Y-81130908D01*
X125657671Y-81181202D01*
X125657664Y-81181206D01*
X125542455Y-81267452D01*
X125542452Y-81267455D01*
X125456206Y-81382664D01*
X125456202Y-81382671D01*
X125405908Y-81517517D01*
X125399501Y-81577116D01*
X125399500Y-81577135D01*
X124640000Y-81577135D01*
X124640000Y-81426508D01*
X124639999Y-81426504D01*
X124601572Y-81233318D01*
X124601569Y-81233306D01*
X124526192Y-81051328D01*
X124526185Y-81051315D01*
X124416751Y-80887537D01*
X124416748Y-80887533D01*
X124277466Y-80748251D01*
X124277462Y-80748248D01*
X124113684Y-80638814D01*
X124113671Y-80638807D01*
X123931691Y-80563429D01*
X123931683Y-80563427D01*
X123890000Y-80555135D01*
X123890000Y-81358011D01*
X123880060Y-81340795D01*
X123824205Y-81284940D01*
X123755796Y-81245444D01*
X123679496Y-81225000D01*
X123600504Y-81225000D01*
X123524204Y-81245444D01*
X123455795Y-81284940D01*
X123399940Y-81340795D01*
X123390000Y-81358011D01*
X123390000Y-80555136D01*
X123389999Y-80555135D01*
X123348316Y-80563427D01*
X123348308Y-80563429D01*
X123166328Y-80638807D01*
X123166315Y-80638814D01*
X123002537Y-80748248D01*
X123002533Y-80748251D01*
X122863251Y-80887533D01*
X122863248Y-80887537D01*
X122753814Y-81051315D01*
X122753807Y-81051328D01*
X122678430Y-81233306D01*
X122678427Y-81233318D01*
X122640000Y-81426504D01*
X122640000Y-81825000D01*
X123340000Y-81825000D01*
X123340000Y-82325000D01*
X122686896Y-82325000D01*
X122619857Y-82305315D01*
X122599177Y-82286293D01*
X122598162Y-82287309D01*
X122503440Y-82192587D01*
X122503438Y-82192585D01*
X122448950Y-82161126D01*
X122394464Y-82129668D01*
X122333690Y-82113384D01*
X122272917Y-82097100D01*
X122147083Y-82097100D01*
X122025535Y-82129668D01*
X121916562Y-82192585D01*
X121916559Y-82192587D01*
X121827587Y-82281559D01*
X121827585Y-82281562D01*
X121764668Y-82390535D01*
X121732100Y-82512083D01*
X116907900Y-82512083D01*
X116875332Y-82390537D01*
X116812415Y-82281562D01*
X116723438Y-82192585D01*
X116668950Y-82161126D01*
X116614464Y-82129668D01*
X116553690Y-82113384D01*
X116492917Y-82097100D01*
X116367083Y-82097100D01*
X116245535Y-82129668D01*
X116136562Y-82192585D01*
X116136559Y-82192587D01*
X116041838Y-82287309D01*
X116039653Y-82285124D01*
X115995040Y-82317694D01*
X115953104Y-82325000D01*
X115300000Y-82325000D01*
X115300000Y-81825000D01*
X116000000Y-81825000D01*
X116000000Y-81426508D01*
X115999999Y-81426504D01*
X115961572Y-81233318D01*
X115961569Y-81233306D01*
X115886192Y-81051328D01*
X115886185Y-81051315D01*
X115776751Y-80887537D01*
X115776748Y-80887533D01*
X115637466Y-80748251D01*
X115637462Y-80748248D01*
X115473684Y-80638814D01*
X115473671Y-80638807D01*
X115291691Y-80563429D01*
X115291683Y-80563427D01*
X115250000Y-80555135D01*
X115250000Y-81358011D01*
X115240060Y-81340795D01*
X115184205Y-81284940D01*
X115115796Y-81245444D01*
X115039496Y-81225000D01*
X114960504Y-81225000D01*
X114884204Y-81245444D01*
X114815795Y-81284940D01*
X114759940Y-81340795D01*
X114750000Y-81358011D01*
X114750000Y-80555136D01*
X114749999Y-80555135D01*
X114708316Y-80563427D01*
X114708308Y-80563429D01*
X114526328Y-80638807D01*
X114526315Y-80638814D01*
X114362537Y-80748248D01*
X114362533Y-80748251D01*
X114223251Y-80887533D01*
X114223248Y-80887537D01*
X114113814Y-81051315D01*
X114113807Y-81051328D01*
X114038430Y-81233306D01*
X114038427Y-81233318D01*
X114000000Y-81426504D01*
X113300821Y-81426504D01*
X113293797Y-81407671D01*
X113293793Y-81407664D01*
X113207547Y-81292455D01*
X113207544Y-81292452D01*
X113092335Y-81206206D01*
X113092328Y-81206202D01*
X112957482Y-81155908D01*
X112957483Y-81155908D01*
X112897883Y-81149501D01*
X112897881Y-81149500D01*
X112897873Y-81149500D01*
X112897864Y-81149500D01*
X111102129Y-81149500D01*
X111102123Y-81149501D01*
X111042516Y-81155908D01*
X110907671Y-81206202D01*
X110907664Y-81206206D01*
X110792455Y-81292452D01*
X110792452Y-81292455D01*
X110706206Y-81407664D01*
X110706202Y-81407671D01*
X110656997Y-81539598D01*
X110615126Y-81595532D01*
X110549661Y-81619949D01*
X110481388Y-81605097D01*
X110453134Y-81583946D01*
X110331082Y-81461894D01*
X110137578Y-81326399D01*
X109923492Y-81226570D01*
X109923486Y-81226567D01*
X109710000Y-81169364D01*
X109710000Y-82066988D01*
X109652993Y-82034075D01*
X109525826Y-82000000D01*
X109394174Y-82000000D01*
X109267007Y-82034075D01*
X109210000Y-82066988D01*
X109210000Y-81169364D01*
X109209999Y-81169364D01*
X108996513Y-81226567D01*
X108996507Y-81226570D01*
X108782422Y-81326399D01*
X108782420Y-81326400D01*
X108588926Y-81461886D01*
X108588920Y-81461891D01*
X108421891Y-81628920D01*
X108421886Y-81628926D01*
X108286400Y-81822420D01*
X108286399Y-81822422D01*
X108186570Y-82036507D01*
X108186567Y-82036513D01*
X108129364Y-82249999D01*
X96000000Y-82249999D01*
X96000000Y-75999997D01*
X114942021Y-75999997D01*
X114942021Y-76000002D01*
X114962277Y-76179789D01*
X115007691Y-76309573D01*
X115022036Y-76350569D01*
X115118297Y-76503767D01*
X115246233Y-76631703D01*
X115399431Y-76727964D01*
X115529212Y-76773376D01*
X115570210Y-76787722D01*
X115749997Y-76807979D01*
X115750000Y-76807979D01*
X115750003Y-76807979D01*
X115929789Y-76787722D01*
X115929792Y-76787721D01*
X116100569Y-76727964D01*
X116253767Y-76631703D01*
X116381703Y-76503767D01*
X116477964Y-76350569D01*
X116537721Y-76179792D01*
X116537721Y-76179791D01*
X116537722Y-76179789D01*
X116557979Y-76000002D01*
X116557979Y-75999997D01*
X116537722Y-75820210D01*
X116523376Y-75779212D01*
X116477964Y-75649431D01*
X116381703Y-75496233D01*
X116253767Y-75368297D01*
X116100569Y-75272036D01*
X116059573Y-75257691D01*
X115929789Y-75212277D01*
X115750003Y-75192021D01*
X115749997Y-75192021D01*
X115570210Y-75212277D01*
X115399428Y-75272037D01*
X115246232Y-75368297D01*
X115118297Y-75496232D01*
X115022037Y-75649428D01*
X114962277Y-75820210D01*
X114942021Y-75999997D01*
X96000000Y-75999997D01*
X96000000Y-73499997D01*
X114942021Y-73499997D01*
X114942021Y-73500002D01*
X114962277Y-73679789D01*
X115007691Y-73809573D01*
X115022036Y-73850569D01*
X115118297Y-74003767D01*
X115246233Y-74131703D01*
X115399431Y-74227964D01*
X115529212Y-74273376D01*
X115570210Y-74287722D01*
X115749997Y-74307979D01*
X115750000Y-74307979D01*
X115750003Y-74307979D01*
X115929789Y-74287722D01*
X115929792Y-74287721D01*
X116100569Y-74227964D01*
X116253767Y-74131703D01*
X116381703Y-74003767D01*
X116477964Y-73850569D01*
X116537721Y-73679792D01*
X116537721Y-73679791D01*
X116537722Y-73679789D01*
X116557979Y-73500002D01*
X116557979Y-73499997D01*
X116537722Y-73320210D01*
X116523376Y-73279212D01*
X116477964Y-73149431D01*
X116381703Y-72996233D01*
X116253767Y-72868297D01*
X116100569Y-72772036D01*
X116059573Y-72757691D01*
X115929789Y-72712277D01*
X115750003Y-72692021D01*
X115749997Y-72692021D01*
X115570210Y-72712277D01*
X115399428Y-72772037D01*
X115246232Y-72868297D01*
X115118297Y-72996232D01*
X115022037Y-73149428D01*
X114962277Y-73320210D01*
X114942021Y-73499997D01*
X96000000Y-73499997D01*
X96000000Y-68499999D01*
X134144341Y-68499999D01*
X134144341Y-68500000D01*
X134164936Y-68735403D01*
X134164938Y-68735413D01*
X134226094Y-68963655D01*
X134226096Y-68963659D01*
X134226097Y-68963663D01*
X134325965Y-69177830D01*
X134325967Y-69177834D01*
X134461501Y-69371395D01*
X134461506Y-69371402D01*
X134628597Y-69538493D01*
X134628603Y-69538498D01*
X134814158Y-69668425D01*
X134857783Y-69723002D01*
X134864977Y-69792500D01*
X134833454Y-69854855D01*
X134814158Y-69871575D01*
X134628597Y-70001505D01*
X134461505Y-70168597D01*
X134325965Y-70362169D01*
X134325964Y-70362171D01*
X134226098Y-70576335D01*
X134226094Y-70576344D01*
X134164938Y-70804586D01*
X134164936Y-70804596D01*
X134144341Y-71039999D01*
X134144341Y-71040000D01*
X134164936Y-71275403D01*
X134164938Y-71275413D01*
X134226094Y-71503655D01*
X134226096Y-71503659D01*
X134226097Y-71503663D01*
X134325965Y-71717830D01*
X134325967Y-71717834D01*
X134461501Y-71911395D01*
X134461506Y-71911402D01*
X134628597Y-72078493D01*
X134628603Y-72078498D01*
X134814158Y-72208425D01*
X134857783Y-72263002D01*
X134864977Y-72332500D01*
X134833454Y-72394855D01*
X134814158Y-72411575D01*
X134628597Y-72541505D01*
X134461505Y-72708597D01*
X134325965Y-72902169D01*
X134325964Y-72902171D01*
X134226098Y-73116335D01*
X134226094Y-73116344D01*
X134164938Y-73344586D01*
X134164936Y-73344596D01*
X134144341Y-73579999D01*
X134144341Y-73580000D01*
X134164936Y-73815403D01*
X134164938Y-73815413D01*
X134226094Y-74043655D01*
X134226096Y-74043659D01*
X134226097Y-74043663D01*
X134267151Y-74131703D01*
X134325965Y-74257830D01*
X134325967Y-74257834D01*
X134434281Y-74412521D01*
X134461505Y-74451401D01*
X134628599Y-74618495D01*
X134725384Y-74686265D01*
X134822165Y-74754032D01*
X134822167Y-74754033D01*
X134822170Y-74754035D01*
X135036337Y-74853903D01*
X135264592Y-74915063D01*
X135452918Y-74931539D01*
X135499999Y-74935659D01*
X135500000Y-74935659D01*
X135500001Y-74935659D01*
X135539234Y-74932226D01*
X135735408Y-74915063D01*
X135963663Y-74853903D01*
X136177830Y-74754035D01*
X136371401Y-74618495D01*
X136538495Y-74451401D01*
X136674035Y-74257830D01*
X136773903Y-74043663D01*
X136835063Y-73815408D01*
X136855659Y-73580000D01*
X136835063Y-73344592D01*
X136773903Y-73116337D01*
X136674035Y-72902171D01*
X136650317Y-72868297D01*
X136538494Y-72708597D01*
X136371402Y-72541506D01*
X136371396Y-72541501D01*
X136185842Y-72411575D01*
X136142217Y-72356998D01*
X136135023Y-72287500D01*
X136166546Y-72225145D01*
X136185842Y-72208425D01*
X136208026Y-72192891D01*
X136371401Y-72078495D01*
X136538495Y-71911401D01*
X136674035Y-71717830D01*
X136773903Y-71503663D01*
X136835063Y-71275408D01*
X136855659Y-71040000D01*
X136835063Y-70804592D01*
X136773903Y-70576337D01*
X136674035Y-70362171D01*
X136538495Y-70168599D01*
X136538494Y-70168597D01*
X136371402Y-70001506D01*
X136371396Y-70001501D01*
X136185842Y-69871575D01*
X136142217Y-69816998D01*
X136135023Y-69747500D01*
X136166546Y-69685145D01*
X136185842Y-69668425D01*
X136208026Y-69652891D01*
X136371401Y-69538495D01*
X136538495Y-69371401D01*
X136674035Y-69177830D01*
X136773903Y-68963663D01*
X136835063Y-68735408D01*
X136855659Y-68500000D01*
X136835063Y-68264592D01*
X136773903Y-68036337D01*
X136674035Y-67822171D01*
X136623900Y-67750571D01*
X136538496Y-67628600D01*
X136489685Y-67579789D01*
X136416179Y-67506283D01*
X136382696Y-67444963D01*
X136387680Y-67375271D01*
X136429551Y-67319337D01*
X136460529Y-67302422D01*
X136592086Y-67253354D01*
X136592093Y-67253350D01*
X136707187Y-67167190D01*
X136707190Y-67167187D01*
X136793350Y-67052093D01*
X136793354Y-67052086D01*
X136843596Y-66917379D01*
X136843598Y-66917372D01*
X136849999Y-66857844D01*
X136850000Y-66857827D01*
X136850000Y-66210000D01*
X135933012Y-66210000D01*
X135965925Y-66152993D01*
X136000000Y-66025826D01*
X136000000Y-65894174D01*
X135965925Y-65767007D01*
X135933012Y-65710000D01*
X136850000Y-65710000D01*
X136850000Y-65062172D01*
X136849999Y-65062155D01*
X136843598Y-65002627D01*
X136843596Y-65002620D01*
X136793354Y-64867913D01*
X136793350Y-64867906D01*
X136707190Y-64752812D01*
X136707187Y-64752809D01*
X136592093Y-64666649D01*
X136592086Y-64666645D01*
X136457379Y-64616403D01*
X136457372Y-64616401D01*
X136397844Y-64610000D01*
X135750000Y-64610000D01*
X135750000Y-65526988D01*
X135692993Y-65494075D01*
X135565826Y-65460000D01*
X135434174Y-65460000D01*
X135307007Y-65494075D01*
X135250000Y-65526988D01*
X135250000Y-64610000D01*
X134602155Y-64610000D01*
X134542627Y-64616401D01*
X134542620Y-64616403D01*
X134407913Y-64666645D01*
X134407906Y-64666649D01*
X134292812Y-64752809D01*
X134292809Y-64752812D01*
X134206649Y-64867906D01*
X134206645Y-64867913D01*
X134156403Y-65002620D01*
X134156401Y-65002627D01*
X134150000Y-65062155D01*
X134150000Y-65710000D01*
X135066988Y-65710000D01*
X135034075Y-65767007D01*
X135000000Y-65894174D01*
X135000000Y-66025826D01*
X135034075Y-66152993D01*
X135066988Y-66210000D01*
X134150000Y-66210000D01*
X134150000Y-66857844D01*
X134156401Y-66917372D01*
X134156403Y-66917379D01*
X134206645Y-67052086D01*
X134206649Y-67052093D01*
X134292809Y-67167187D01*
X134292812Y-67167190D01*
X134407906Y-67253350D01*
X134407913Y-67253354D01*
X134539470Y-67302421D01*
X134595403Y-67344292D01*
X134619821Y-67409756D01*
X134604970Y-67478029D01*
X134583819Y-67506284D01*
X134461503Y-67628600D01*
X134325965Y-67822169D01*
X134325964Y-67822171D01*
X134226098Y-68036335D01*
X134226094Y-68036344D01*
X134164938Y-68264586D01*
X134164936Y-68264596D01*
X134144341Y-68499999D01*
X96000000Y-68499999D01*
X96000000Y-67399997D01*
X115792021Y-67399997D01*
X115792021Y-67400002D01*
X115812277Y-67579789D01*
X115857691Y-67709573D01*
X115872036Y-67750569D01*
X115968297Y-67903767D01*
X116096233Y-68031703D01*
X116249431Y-68127964D01*
X116366529Y-68168938D01*
X116420210Y-68187722D01*
X116599997Y-68207979D01*
X116600000Y-68207979D01*
X116600003Y-68207979D01*
X116785574Y-68187070D01*
X116854396Y-68199124D01*
X116887139Y-68222609D01*
X116896233Y-68231703D01*
X117049431Y-68327964D01*
X117179212Y-68373376D01*
X117220210Y-68387722D01*
X117399997Y-68407979D01*
X117400000Y-68407979D01*
X117400003Y-68407979D01*
X117579789Y-68387722D01*
X117579792Y-68387721D01*
X117750569Y-68327964D01*
X117903767Y-68231703D01*
X118031703Y-68103767D01*
X118127964Y-67950569D01*
X118187721Y-67779792D01*
X118187721Y-67779791D01*
X118187722Y-67779789D01*
X118207979Y-67600002D01*
X118207979Y-67599997D01*
X118187722Y-67420210D01*
X118146506Y-67302422D01*
X118127964Y-67249431D01*
X118031703Y-67096233D01*
X117903767Y-66968297D01*
X117750569Y-66872036D01*
X117709573Y-66857691D01*
X117579789Y-66812277D01*
X117400003Y-66792021D01*
X117399996Y-66792021D01*
X117214424Y-66812929D01*
X117145602Y-66800874D01*
X117112860Y-66777390D01*
X117103767Y-66768297D01*
X116950571Y-66672037D01*
X116950570Y-66672036D01*
X116950569Y-66672036D01*
X116909573Y-66657691D01*
X116779789Y-66612277D01*
X116600003Y-66592021D01*
X116599997Y-66592021D01*
X116420210Y-66612277D01*
X116249428Y-66672037D01*
X116096232Y-66768297D01*
X115968297Y-66896232D01*
X115872037Y-67049428D01*
X115812277Y-67220210D01*
X115792021Y-67399997D01*
X96000000Y-67399997D01*
X96000000Y-65249997D01*
X114442021Y-65249997D01*
X114442021Y-65250002D01*
X114462277Y-65429789D01*
X114484772Y-65494075D01*
X114522036Y-65600569D01*
X114618297Y-65753767D01*
X114746233Y-65881703D01*
X114899431Y-65977964D01*
X115029212Y-66023376D01*
X115070210Y-66037722D01*
X115249997Y-66057979D01*
X115250000Y-66057979D01*
X115250003Y-66057979D01*
X115429789Y-66037722D01*
X115429792Y-66037721D01*
X115600569Y-65977964D01*
X115753767Y-65881703D01*
X115881703Y-65753767D01*
X115977964Y-65600569D01*
X116037721Y-65429792D01*
X116037721Y-65429791D01*
X116037722Y-65429789D01*
X116057979Y-65250002D01*
X116057979Y-65249997D01*
X116037722Y-65070210D01*
X116023376Y-65029212D01*
X115977964Y-64899431D01*
X115881703Y-64746233D01*
X115753767Y-64618297D01*
X115600569Y-64522036D01*
X115559573Y-64507691D01*
X115429789Y-64462277D01*
X115250003Y-64442021D01*
X115249997Y-64442021D01*
X115070210Y-64462277D01*
X114899428Y-64522037D01*
X114746232Y-64618297D01*
X114618297Y-64746232D01*
X114522037Y-64899428D01*
X114462277Y-65070210D01*
X114442021Y-65249997D01*
X96000000Y-65249997D01*
X96000000Y-28379999D01*
X97604341Y-28379999D01*
X97604341Y-28380000D01*
X97624936Y-28615403D01*
X97624938Y-28615413D01*
X97686094Y-28843655D01*
X97686096Y-28843659D01*
X97686097Y-28843663D01*
X97755278Y-28992021D01*
X97785965Y-29057830D01*
X97785967Y-29057834D01*
X97867658Y-29174500D01*
X97921501Y-29251396D01*
X97921506Y-29251402D01*
X98088597Y-29418493D01*
X98088603Y-29418498D01*
X98274594Y-29548730D01*
X98318219Y-29603307D01*
X98325413Y-29672805D01*
X98293890Y-29735160D01*
X98274595Y-29751880D01*
X98088922Y-29881890D01*
X98088920Y-29881891D01*
X97921891Y-30048920D01*
X97921886Y-30048926D01*
X97786400Y-30242420D01*
X97786399Y-30242422D01*
X97686570Y-30456507D01*
X97686567Y-30456513D01*
X97629364Y-30669999D01*
X97629364Y-30670000D01*
X98526988Y-30670000D01*
X98494075Y-30727007D01*
X98460000Y-30854174D01*
X98460000Y-30985826D01*
X98494075Y-31112993D01*
X98526988Y-31170000D01*
X97629364Y-31170000D01*
X97686567Y-31383486D01*
X97686570Y-31383492D01*
X97786399Y-31597578D01*
X97921894Y-31791082D01*
X98088917Y-31958105D01*
X98274595Y-32088119D01*
X98318219Y-32142696D01*
X98325412Y-32212195D01*
X98293890Y-32274549D01*
X98274595Y-32291269D01*
X98088594Y-32421508D01*
X97921505Y-32588597D01*
X97785965Y-32782169D01*
X97785964Y-32782171D01*
X97686098Y-32996335D01*
X97686094Y-32996344D01*
X97624938Y-33224586D01*
X97624936Y-33224596D01*
X97604341Y-33459999D01*
X97604341Y-33460000D01*
X97624936Y-33695403D01*
X97624938Y-33695413D01*
X97686094Y-33923655D01*
X97686096Y-33923659D01*
X97686097Y-33923663D01*
X97781170Y-34127547D01*
X97785965Y-34137830D01*
X97785967Y-34137834D01*
X97865253Y-34251065D01*
X97921501Y-34331396D01*
X97921506Y-34331402D01*
X98088597Y-34498493D01*
X98088603Y-34498498D01*
X98274158Y-34628425D01*
X98317783Y-34683002D01*
X98324977Y-34752500D01*
X98293454Y-34814855D01*
X98274158Y-34831575D01*
X98088597Y-34961505D01*
X97921505Y-35128597D01*
X97785965Y-35322169D01*
X97785964Y-35322171D01*
X97686098Y-35536335D01*
X97686094Y-35536344D01*
X97624938Y-35764586D01*
X97624936Y-35764596D01*
X97604341Y-35999999D01*
X97604341Y-36000000D01*
X97624936Y-36235403D01*
X97624938Y-36235413D01*
X97686094Y-36463655D01*
X97686096Y-36463659D01*
X97686097Y-36463663D01*
X97701285Y-36496233D01*
X97785965Y-36677830D01*
X97785967Y-36677834D01*
X97838036Y-36752195D01*
X97921501Y-36871396D01*
X97921506Y-36871402D01*
X98088597Y-37038493D01*
X98088603Y-37038498D01*
X98274158Y-37168425D01*
X98317783Y-37223002D01*
X98324977Y-37292500D01*
X98293454Y-37354855D01*
X98274158Y-37371575D01*
X98088597Y-37501505D01*
X97921505Y-37668597D01*
X97785965Y-37862169D01*
X97785964Y-37862171D01*
X97686098Y-38076335D01*
X97686094Y-38076344D01*
X97624938Y-38304586D01*
X97624936Y-38304596D01*
X97604341Y-38539999D01*
X97604341Y-38540000D01*
X97624936Y-38775403D01*
X97624938Y-38775413D01*
X97686094Y-39003655D01*
X97686096Y-39003659D01*
X97686097Y-39003663D01*
X97769155Y-39181781D01*
X97785965Y-39217830D01*
X97785967Y-39217834D01*
X97882474Y-39355659D01*
X97921501Y-39411396D01*
X97921506Y-39411402D01*
X98088597Y-39578493D01*
X98088603Y-39578498D01*
X98274594Y-39708730D01*
X98318219Y-39763307D01*
X98325413Y-39832805D01*
X98293890Y-39895160D01*
X98274595Y-39911880D01*
X98088922Y-40041890D01*
X98088920Y-40041891D01*
X97921891Y-40208920D01*
X97921886Y-40208926D01*
X97786400Y-40402420D01*
X97786399Y-40402422D01*
X97686570Y-40616507D01*
X97686567Y-40616513D01*
X97629364Y-40829999D01*
X97629364Y-40830000D01*
X98526988Y-40830000D01*
X98494075Y-40887007D01*
X98460000Y-41014174D01*
X98460000Y-41145826D01*
X98494075Y-41272993D01*
X98526988Y-41330000D01*
X97629364Y-41330000D01*
X97686567Y-41543486D01*
X97686570Y-41543492D01*
X97786399Y-41757578D01*
X97921894Y-41951082D01*
X98088917Y-42118105D01*
X98274595Y-42248119D01*
X98318219Y-42302696D01*
X98325412Y-42372195D01*
X98293890Y-42434549D01*
X98274595Y-42451269D01*
X98088594Y-42581508D01*
X97921505Y-42748597D01*
X97785965Y-42942169D01*
X97785964Y-42942171D01*
X97686098Y-43156335D01*
X97686094Y-43156344D01*
X97624938Y-43384586D01*
X97624936Y-43384596D01*
X97604341Y-43619999D01*
X97604341Y-43620000D01*
X97624936Y-43855403D01*
X97624938Y-43855413D01*
X97686094Y-44083655D01*
X97686096Y-44083659D01*
X97686097Y-44083663D01*
X97690000Y-44092032D01*
X97785965Y-44297830D01*
X97785967Y-44297834D01*
X97894281Y-44452521D01*
X97921501Y-44491396D01*
X97921506Y-44491402D01*
X98088597Y-44658493D01*
X98088603Y-44658498D01*
X98274158Y-44788425D01*
X98317783Y-44843002D01*
X98324977Y-44912500D01*
X98293454Y-44974855D01*
X98274158Y-44991575D01*
X98088597Y-45121505D01*
X97921505Y-45288597D01*
X97785965Y-45482169D01*
X97785964Y-45482171D01*
X97686098Y-45696335D01*
X97686094Y-45696344D01*
X97624938Y-45924586D01*
X97624936Y-45924596D01*
X97604341Y-46159999D01*
X97604341Y-46160000D01*
X97624936Y-46395403D01*
X97624938Y-46395413D01*
X97686094Y-46623655D01*
X97686096Y-46623659D01*
X97686097Y-46623663D01*
X97766004Y-46795023D01*
X97785965Y-46837830D01*
X97785967Y-46837834D01*
X97894281Y-46992521D01*
X97921501Y-47031396D01*
X97921506Y-47031402D01*
X98088597Y-47198493D01*
X98088603Y-47198498D01*
X98274158Y-47328425D01*
X98317783Y-47383002D01*
X98324977Y-47452500D01*
X98293454Y-47514855D01*
X98274158Y-47531575D01*
X98088597Y-47661505D01*
X97921505Y-47828597D01*
X97785965Y-48022169D01*
X97785964Y-48022171D01*
X97686098Y-48236335D01*
X97686094Y-48236344D01*
X97624938Y-48464586D01*
X97624936Y-48464596D01*
X97604341Y-48699999D01*
X97604341Y-48700000D01*
X97624936Y-48935403D01*
X97624938Y-48935413D01*
X97686094Y-49163655D01*
X97686096Y-49163659D01*
X97686097Y-49163663D01*
X97690000Y-49172032D01*
X97785965Y-49377830D01*
X97785967Y-49377834D01*
X97894281Y-49532521D01*
X97921501Y-49571396D01*
X97921506Y-49571402D01*
X98088597Y-49738493D01*
X98088603Y-49738498D01*
X98274158Y-49868425D01*
X98317783Y-49923002D01*
X98324977Y-49992500D01*
X98293454Y-50054855D01*
X98274158Y-50071575D01*
X98088597Y-50201505D01*
X97921505Y-50368597D01*
X97785965Y-50562169D01*
X97785964Y-50562171D01*
X97686098Y-50776335D01*
X97686094Y-50776344D01*
X97624938Y-51004586D01*
X97624936Y-51004596D01*
X97604341Y-51239999D01*
X97604341Y-51240000D01*
X97624936Y-51475403D01*
X97624938Y-51475413D01*
X97686094Y-51703655D01*
X97686096Y-51703659D01*
X97686097Y-51703663D01*
X97766004Y-51875023D01*
X97785965Y-51917830D01*
X97785967Y-51917834D01*
X97894281Y-52072521D01*
X97921501Y-52111396D01*
X97921506Y-52111402D01*
X98088597Y-52278493D01*
X98088603Y-52278498D01*
X98274158Y-52408425D01*
X98317783Y-52463002D01*
X98324977Y-52532500D01*
X98293454Y-52594855D01*
X98274158Y-52611575D01*
X98088597Y-52741505D01*
X97921505Y-52908597D01*
X97785965Y-53102169D01*
X97785964Y-53102171D01*
X97686098Y-53316335D01*
X97686094Y-53316344D01*
X97624938Y-53544586D01*
X97624936Y-53544596D01*
X97604341Y-53779999D01*
X97604341Y-53780000D01*
X97624936Y-54015403D01*
X97624938Y-54015413D01*
X97686094Y-54243655D01*
X97686096Y-54243659D01*
X97686097Y-54243663D01*
X97690000Y-54252032D01*
X97785965Y-54457830D01*
X97785967Y-54457834D01*
X97894281Y-54612521D01*
X97921501Y-54651396D01*
X97921506Y-54651402D01*
X98088597Y-54818493D01*
X98088603Y-54818498D01*
X98274158Y-54948425D01*
X98317783Y-55003002D01*
X98324977Y-55072500D01*
X98293454Y-55134855D01*
X98274158Y-55151575D01*
X98088597Y-55281505D01*
X97921505Y-55448597D01*
X97785965Y-55642169D01*
X97785964Y-55642171D01*
X97686098Y-55856335D01*
X97686094Y-55856344D01*
X97624938Y-56084586D01*
X97624936Y-56084596D01*
X97604341Y-56319999D01*
X97604341Y-56320000D01*
X97624936Y-56555403D01*
X97624938Y-56555413D01*
X97686094Y-56783655D01*
X97686096Y-56783659D01*
X97686097Y-56783663D01*
X97766004Y-56955023D01*
X97785965Y-56997830D01*
X97785967Y-56997834D01*
X97894281Y-57152521D01*
X97921501Y-57191396D01*
X97921506Y-57191402D01*
X98088597Y-57358493D01*
X98088603Y-57358498D01*
X98274158Y-57488425D01*
X98317783Y-57543002D01*
X98324977Y-57612500D01*
X98293454Y-57674855D01*
X98274158Y-57691575D01*
X98088597Y-57821505D01*
X97921505Y-57988597D01*
X97785965Y-58182169D01*
X97785964Y-58182171D01*
X97686098Y-58396335D01*
X97686094Y-58396344D01*
X97624938Y-58624586D01*
X97624936Y-58624596D01*
X97604341Y-58859999D01*
X97604341Y-58860000D01*
X97624936Y-59095403D01*
X97624938Y-59095413D01*
X97686094Y-59323655D01*
X97686096Y-59323659D01*
X97686097Y-59323663D01*
X97690000Y-59332032D01*
X97785965Y-59537830D01*
X97785967Y-59537834D01*
X97894281Y-59692521D01*
X97921501Y-59731396D01*
X97921506Y-59731402D01*
X98088597Y-59898493D01*
X98088603Y-59898498D01*
X98274158Y-60028425D01*
X98317783Y-60083002D01*
X98324977Y-60152500D01*
X98293454Y-60214855D01*
X98274158Y-60231575D01*
X98088597Y-60361505D01*
X97921505Y-60528597D01*
X97785965Y-60722169D01*
X97785964Y-60722171D01*
X97686098Y-60936335D01*
X97686094Y-60936344D01*
X97624938Y-61164586D01*
X97624936Y-61164596D01*
X97604341Y-61399999D01*
X97604341Y-61400000D01*
X97624936Y-61635403D01*
X97624938Y-61635413D01*
X97686094Y-61863655D01*
X97686096Y-61863659D01*
X97686097Y-61863663D01*
X97690000Y-61872032D01*
X97785965Y-62077830D01*
X97785967Y-62077834D01*
X97894281Y-62232521D01*
X97921505Y-62271401D01*
X98088599Y-62438495D01*
X98185384Y-62506265D01*
X98282165Y-62574032D01*
X98282167Y-62574033D01*
X98282170Y-62574035D01*
X98496337Y-62673903D01*
X98724592Y-62735063D01*
X98912918Y-62751539D01*
X98959999Y-62755659D01*
X98960000Y-62755659D01*
X98960001Y-62755659D01*
X98999234Y-62752226D01*
X99195408Y-62735063D01*
X99423663Y-62673903D01*
X99637830Y-62574035D01*
X99831401Y-62438495D01*
X99998495Y-62271401D01*
X100128425Y-62085842D01*
X100183002Y-62042217D01*
X100252500Y-62035023D01*
X100314855Y-62066546D01*
X100331575Y-62085842D01*
X100461500Y-62271395D01*
X100461505Y-62271401D01*
X100628599Y-62438495D01*
X100725384Y-62506265D01*
X100822165Y-62574032D01*
X100822167Y-62574033D01*
X100822170Y-62574035D01*
X101036337Y-62673903D01*
X101264592Y-62735063D01*
X101452918Y-62751539D01*
X101499999Y-62755659D01*
X101500000Y-62755659D01*
X101500001Y-62755659D01*
X101539234Y-62752226D01*
X101735408Y-62735063D01*
X101963663Y-62673903D01*
X102177830Y-62574035D01*
X102371401Y-62438495D01*
X102538495Y-62271401D01*
X102674035Y-62077830D01*
X102773903Y-61863663D01*
X102835063Y-61635408D01*
X102855659Y-61400000D01*
X102835063Y-61164592D01*
X102773903Y-60936337D01*
X102674035Y-60722171D01*
X102668425Y-60714158D01*
X102538494Y-60528597D01*
X102371402Y-60361506D01*
X102371396Y-60361501D01*
X102185842Y-60231575D01*
X102142217Y-60176998D01*
X102135023Y-60107500D01*
X102166546Y-60045145D01*
X102185842Y-60028425D01*
X102208026Y-60012891D01*
X102371401Y-59898495D01*
X102538495Y-59731401D01*
X102674035Y-59537830D01*
X102773903Y-59323663D01*
X102835063Y-59095408D01*
X102855659Y-58860000D01*
X102835063Y-58624592D01*
X102778068Y-58411880D01*
X102773905Y-58396344D01*
X102773904Y-58396343D01*
X102773903Y-58396337D01*
X102674035Y-58182171D01*
X102668425Y-58174158D01*
X102538494Y-57988597D01*
X102371402Y-57821506D01*
X102371396Y-57821501D01*
X102185842Y-57691575D01*
X102142217Y-57636998D01*
X102135023Y-57567500D01*
X102166546Y-57505145D01*
X102185842Y-57488425D01*
X102208026Y-57472891D01*
X102371401Y-57358495D01*
X102538495Y-57191401D01*
X102674035Y-56997830D01*
X102773903Y-56783663D01*
X102835063Y-56555408D01*
X102855659Y-56320000D01*
X102835063Y-56084592D01*
X102773903Y-55856337D01*
X102674035Y-55642171D01*
X102668425Y-55634158D01*
X102538494Y-55448597D01*
X102371402Y-55281506D01*
X102371396Y-55281501D01*
X102185842Y-55151575D01*
X102142217Y-55096998D01*
X102135023Y-55027500D01*
X102166546Y-54965145D01*
X102185842Y-54948425D01*
X102208026Y-54932891D01*
X102371401Y-54818495D01*
X102538495Y-54651401D01*
X102674035Y-54457830D01*
X102773903Y-54243663D01*
X102835063Y-54015408D01*
X102855659Y-53780000D01*
X102835063Y-53544592D01*
X102778068Y-53331880D01*
X102773905Y-53316344D01*
X102773904Y-53316343D01*
X102773903Y-53316337D01*
X102674035Y-53102171D01*
X102668425Y-53094158D01*
X102538494Y-52908597D01*
X102371402Y-52741506D01*
X102371396Y-52741501D01*
X102185842Y-52611575D01*
X102142217Y-52556998D01*
X102135023Y-52487500D01*
X102166546Y-52425145D01*
X102185842Y-52408425D01*
X102208026Y-52392891D01*
X102371401Y-52278495D01*
X102538495Y-52111401D01*
X102674035Y-51917830D01*
X102773903Y-51703663D01*
X102835063Y-51475408D01*
X102855659Y-51240000D01*
X102835063Y-51004592D01*
X102773903Y-50776337D01*
X102674035Y-50562171D01*
X102668425Y-50554158D01*
X102538494Y-50368597D01*
X102371402Y-50201506D01*
X102371396Y-50201501D01*
X102185842Y-50071575D01*
X102142217Y-50016998D01*
X102135023Y-49947500D01*
X102166546Y-49885145D01*
X102185842Y-49868425D01*
X102208026Y-49852891D01*
X102371401Y-49738495D01*
X102538495Y-49571401D01*
X102674035Y-49377830D01*
X102773903Y-49163663D01*
X102835063Y-48935408D01*
X102855659Y-48700000D01*
X102835063Y-48464592D01*
X102778068Y-48251880D01*
X102773905Y-48236344D01*
X102773904Y-48236343D01*
X102773903Y-48236337D01*
X102674035Y-48022171D01*
X102668425Y-48014158D01*
X102538494Y-47828597D01*
X102371402Y-47661506D01*
X102371396Y-47661501D01*
X102185842Y-47531575D01*
X102142217Y-47476998D01*
X102135023Y-47407500D01*
X102166546Y-47345145D01*
X102185842Y-47328425D01*
X102208026Y-47312891D01*
X102371401Y-47198495D01*
X102538495Y-47031401D01*
X102644508Y-46879999D01*
X134144341Y-46879999D01*
X134144341Y-46880000D01*
X134164936Y-47115403D01*
X134164938Y-47115413D01*
X134226094Y-47343655D01*
X134226096Y-47343659D01*
X134226097Y-47343663D01*
X134305925Y-47514855D01*
X134325965Y-47557830D01*
X134325967Y-47557834D01*
X134398556Y-47661501D01*
X134461505Y-47751401D01*
X134628599Y-47918495D01*
X134792777Y-48033454D01*
X134814594Y-48048730D01*
X134858219Y-48103307D01*
X134865413Y-48172805D01*
X134833890Y-48235160D01*
X134814595Y-48251880D01*
X134628922Y-48381890D01*
X134628920Y-48381891D01*
X134461891Y-48548920D01*
X134461886Y-48548926D01*
X134326400Y-48742420D01*
X134326399Y-48742422D01*
X134226570Y-48956507D01*
X134226567Y-48956513D01*
X134169364Y-49169999D01*
X134169364Y-49170000D01*
X135066988Y-49170000D01*
X135034075Y-49227007D01*
X135000000Y-49354174D01*
X135000000Y-49485826D01*
X135034075Y-49612993D01*
X135066988Y-49670000D01*
X134169364Y-49670000D01*
X134226567Y-49883486D01*
X134226570Y-49883492D01*
X134326399Y-50097578D01*
X134461894Y-50291082D01*
X134628917Y-50458105D01*
X134814595Y-50588119D01*
X134858219Y-50642696D01*
X134865412Y-50712195D01*
X134833890Y-50774549D01*
X134814595Y-50791269D01*
X134628594Y-50921508D01*
X134461505Y-51088597D01*
X134325965Y-51282169D01*
X134325964Y-51282171D01*
X134226098Y-51496335D01*
X134226094Y-51496344D01*
X134164938Y-51724586D01*
X134164936Y-51724596D01*
X134144341Y-51959999D01*
X134144341Y-51960000D01*
X134164936Y-52195403D01*
X134164938Y-52195413D01*
X134226094Y-52423655D01*
X134226096Y-52423659D01*
X134226097Y-52423663D01*
X134305925Y-52594855D01*
X134325965Y-52637830D01*
X134325967Y-52637834D01*
X134398556Y-52741501D01*
X134461505Y-52831401D01*
X134628599Y-52998495D01*
X134792777Y-53113454D01*
X134814594Y-53128730D01*
X134858219Y-53183307D01*
X134865413Y-53252805D01*
X134833890Y-53315160D01*
X134814595Y-53331880D01*
X134628922Y-53461890D01*
X134628920Y-53461891D01*
X134461891Y-53628920D01*
X134461886Y-53628926D01*
X134326400Y-53822420D01*
X134326399Y-53822422D01*
X134226570Y-54036507D01*
X134226567Y-54036513D01*
X134169364Y-54249999D01*
X134169364Y-54250000D01*
X135066988Y-54250000D01*
X135034075Y-54307007D01*
X135000000Y-54434174D01*
X135000000Y-54565826D01*
X135034075Y-54692993D01*
X135066988Y-54750000D01*
X134169364Y-54750000D01*
X134226567Y-54963486D01*
X134226570Y-54963492D01*
X134326399Y-55177578D01*
X134461894Y-55371082D01*
X134628917Y-55538105D01*
X134814595Y-55668119D01*
X134858219Y-55722696D01*
X134865412Y-55792195D01*
X134833890Y-55854549D01*
X134814595Y-55871269D01*
X134628594Y-56001508D01*
X134461505Y-56168597D01*
X134325965Y-56362169D01*
X134325964Y-56362171D01*
X134226098Y-56576335D01*
X134226094Y-56576344D01*
X134164938Y-56804586D01*
X134164936Y-56804596D01*
X134144341Y-57039999D01*
X134144341Y-57040000D01*
X134164936Y-57275403D01*
X134164938Y-57275413D01*
X134226094Y-57503655D01*
X134226096Y-57503659D01*
X134226097Y-57503663D01*
X134305925Y-57674855D01*
X134325965Y-57717830D01*
X134325967Y-57717834D01*
X134398556Y-57821501D01*
X134461505Y-57911401D01*
X134628599Y-58078495D01*
X134792777Y-58193454D01*
X134814594Y-58208730D01*
X134858219Y-58263307D01*
X134865413Y-58332805D01*
X134833890Y-58395160D01*
X134814595Y-58411880D01*
X134628922Y-58541890D01*
X134628920Y-58541891D01*
X134461891Y-58708920D01*
X134461886Y-58708926D01*
X134326400Y-58902420D01*
X134326399Y-58902422D01*
X134226570Y-59116507D01*
X134226567Y-59116513D01*
X134169364Y-59329999D01*
X134169364Y-59330000D01*
X135066988Y-59330000D01*
X135034075Y-59387007D01*
X135000000Y-59514174D01*
X135000000Y-59645826D01*
X135034075Y-59772993D01*
X135066988Y-59830000D01*
X134169364Y-59830000D01*
X134226567Y-60043486D01*
X134226570Y-60043492D01*
X134326399Y-60257578D01*
X134461894Y-60451082D01*
X134628917Y-60618105D01*
X134822421Y-60753600D01*
X135036507Y-60853429D01*
X135036516Y-60853433D01*
X135250000Y-60910634D01*
X135250000Y-60013012D01*
X135307007Y-60045925D01*
X135434174Y-60080000D01*
X135565826Y-60080000D01*
X135692993Y-60045925D01*
X135750000Y-60013012D01*
X135750000Y-60910633D01*
X135963483Y-60853433D01*
X135963492Y-60853429D01*
X136177578Y-60753600D01*
X136371082Y-60618105D01*
X136538105Y-60451082D01*
X136673600Y-60257578D01*
X136773429Y-60043492D01*
X136773432Y-60043486D01*
X136830636Y-59830000D01*
X135933012Y-59830000D01*
X135965925Y-59772993D01*
X136000000Y-59645826D01*
X136000000Y-59514174D01*
X135965925Y-59387007D01*
X135933012Y-59330000D01*
X136830636Y-59330000D01*
X136830635Y-59329999D01*
X136773432Y-59116513D01*
X136773429Y-59116507D01*
X136673600Y-58902422D01*
X136673599Y-58902420D01*
X136538113Y-58708926D01*
X136538108Y-58708920D01*
X136371078Y-58541890D01*
X136185405Y-58411879D01*
X136141780Y-58357302D01*
X136134588Y-58287804D01*
X136166110Y-58225449D01*
X136185406Y-58208730D01*
X136371401Y-58078495D01*
X136538495Y-57911401D01*
X136674035Y-57717830D01*
X136773903Y-57503663D01*
X136835063Y-57275408D01*
X136855659Y-57040000D01*
X136852670Y-57005842D01*
X136835063Y-56804596D01*
X136835063Y-56804592D01*
X136773903Y-56576337D01*
X136674035Y-56362171D01*
X136538495Y-56168599D01*
X136538494Y-56168597D01*
X136371402Y-56001506D01*
X136371401Y-56001505D01*
X136185405Y-55871269D01*
X136141781Y-55816692D01*
X136134588Y-55747193D01*
X136166110Y-55684839D01*
X136185405Y-55668119D01*
X136371082Y-55538105D01*
X136538105Y-55371082D01*
X136673600Y-55177578D01*
X136773429Y-54963492D01*
X136773432Y-54963486D01*
X136830636Y-54750000D01*
X135933012Y-54750000D01*
X135965925Y-54692993D01*
X136000000Y-54565826D01*
X136000000Y-54434174D01*
X135965925Y-54307007D01*
X135933012Y-54250000D01*
X136830636Y-54250000D01*
X136830635Y-54249999D01*
X136773432Y-54036513D01*
X136773429Y-54036507D01*
X136673600Y-53822422D01*
X136673599Y-53822420D01*
X136538113Y-53628926D01*
X136538108Y-53628920D01*
X136371078Y-53461890D01*
X136185405Y-53331879D01*
X136141780Y-53277302D01*
X136134588Y-53207804D01*
X136166110Y-53145449D01*
X136185406Y-53128730D01*
X136371401Y-52998495D01*
X136538495Y-52831401D01*
X136674035Y-52637830D01*
X136773903Y-52423663D01*
X136835063Y-52195408D01*
X136855659Y-51960000D01*
X136852670Y-51925842D01*
X136835063Y-51724596D01*
X136835063Y-51724592D01*
X136773903Y-51496337D01*
X136674035Y-51282171D01*
X136538495Y-51088599D01*
X136538494Y-51088597D01*
X136371402Y-50921506D01*
X136371401Y-50921505D01*
X136185405Y-50791269D01*
X136141781Y-50736692D01*
X136134588Y-50667193D01*
X136166110Y-50604839D01*
X136185405Y-50588119D01*
X136371082Y-50458105D01*
X136538105Y-50291082D01*
X136673600Y-50097578D01*
X136773429Y-49883492D01*
X136773432Y-49883486D01*
X136830636Y-49670000D01*
X135933012Y-49670000D01*
X135965925Y-49612993D01*
X136000000Y-49485826D01*
X136000000Y-49354174D01*
X135965925Y-49227007D01*
X135933012Y-49170000D01*
X136830636Y-49170000D01*
X136830635Y-49169999D01*
X136773432Y-48956513D01*
X136773429Y-48956507D01*
X136673600Y-48742422D01*
X136673599Y-48742420D01*
X136538113Y-48548926D01*
X136538108Y-48548920D01*
X136371078Y-48381890D01*
X136185405Y-48251879D01*
X136141780Y-48197302D01*
X136134588Y-48127804D01*
X136166110Y-48065449D01*
X136185406Y-48048730D01*
X136371401Y-47918495D01*
X136538495Y-47751401D01*
X136674035Y-47557830D01*
X136773903Y-47343663D01*
X136835063Y-47115408D01*
X136855659Y-46880000D01*
X136852670Y-46845842D01*
X136835063Y-46644596D01*
X136835063Y-46644592D01*
X136773903Y-46416337D01*
X136674035Y-46202171D01*
X136538495Y-46008599D01*
X136538494Y-46008597D01*
X136371402Y-45841506D01*
X136371401Y-45841505D01*
X136185405Y-45711269D01*
X136141781Y-45656692D01*
X136134588Y-45587193D01*
X136166110Y-45524839D01*
X136185405Y-45508119D01*
X136371082Y-45378105D01*
X136538105Y-45211082D01*
X136673600Y-45017578D01*
X136773429Y-44803492D01*
X136773432Y-44803486D01*
X136830636Y-44590000D01*
X135933012Y-44590000D01*
X135965925Y-44532993D01*
X136000000Y-44405826D01*
X136000000Y-44274174D01*
X135965925Y-44147007D01*
X135933012Y-44090000D01*
X136830636Y-44090000D01*
X136830635Y-44089999D01*
X136773432Y-43876513D01*
X136773429Y-43876507D01*
X136673600Y-43662422D01*
X136673599Y-43662420D01*
X136538113Y-43468926D01*
X136538108Y-43468920D01*
X136416053Y-43346865D01*
X136382568Y-43285542D01*
X136387552Y-43215850D01*
X136429424Y-43159917D01*
X136460400Y-43143002D01*
X136592331Y-43093796D01*
X136707546Y-43007546D01*
X136793796Y-42892331D01*
X136844091Y-42757483D01*
X136850500Y-42697873D01*
X136850499Y-40902128D01*
X136844862Y-40849685D01*
X136844091Y-40842516D01*
X136793797Y-40707671D01*
X136793793Y-40707664D01*
X136707547Y-40592455D01*
X136707544Y-40592452D01*
X136592335Y-40506206D01*
X136592328Y-40506202D01*
X136457482Y-40455908D01*
X136457483Y-40455908D01*
X136397883Y-40449501D01*
X136397881Y-40449500D01*
X136397873Y-40449500D01*
X136397864Y-40449500D01*
X134602129Y-40449500D01*
X134602123Y-40449501D01*
X134542516Y-40455908D01*
X134407671Y-40506202D01*
X134407664Y-40506206D01*
X134292455Y-40592452D01*
X134292452Y-40592455D01*
X134206206Y-40707664D01*
X134206202Y-40707671D01*
X134155908Y-40842517D01*
X134149501Y-40902116D01*
X134149501Y-40902123D01*
X134149500Y-40902135D01*
X134149500Y-42697870D01*
X134149501Y-42697876D01*
X134155908Y-42757483D01*
X134206202Y-42892328D01*
X134206206Y-42892335D01*
X134292452Y-43007544D01*
X134292455Y-43007547D01*
X134407664Y-43093793D01*
X134407671Y-43093797D01*
X134469902Y-43117007D01*
X134539598Y-43143002D01*
X134595531Y-43184873D01*
X134619949Y-43250337D01*
X134605098Y-43318610D01*
X134583947Y-43346865D01*
X134461886Y-43468926D01*
X134326400Y-43662420D01*
X134326399Y-43662422D01*
X134226570Y-43876507D01*
X134226567Y-43876513D01*
X134169364Y-44089999D01*
X134169364Y-44090000D01*
X135066988Y-44090000D01*
X135034075Y-44147007D01*
X135000000Y-44274174D01*
X135000000Y-44405826D01*
X135034075Y-44532993D01*
X135066988Y-44590000D01*
X134169364Y-44590000D01*
X134226567Y-44803486D01*
X134226570Y-44803492D01*
X134326399Y-45017578D01*
X134461894Y-45211082D01*
X134628917Y-45378105D01*
X134814595Y-45508119D01*
X134858219Y-45562696D01*
X134865412Y-45632195D01*
X134833890Y-45694549D01*
X134814595Y-45711269D01*
X134628594Y-45841508D01*
X134461505Y-46008597D01*
X134325965Y-46202169D01*
X134325964Y-46202171D01*
X134226098Y-46416335D01*
X134226094Y-46416344D01*
X134164938Y-46644586D01*
X134164936Y-46644596D01*
X134144341Y-46879999D01*
X102644508Y-46879999D01*
X102674035Y-46837830D01*
X102773903Y-46623663D01*
X102835063Y-46395408D01*
X102855659Y-46160000D01*
X102835063Y-45924592D01*
X102773903Y-45696337D01*
X102674035Y-45482171D01*
X102668425Y-45474158D01*
X102538494Y-45288597D01*
X102371402Y-45121506D01*
X102371396Y-45121501D01*
X102185842Y-44991575D01*
X102142217Y-44936998D01*
X102135023Y-44867500D01*
X102166546Y-44805145D01*
X102185842Y-44788425D01*
X102208026Y-44772891D01*
X102371401Y-44658495D01*
X102538495Y-44491401D01*
X102674035Y-44297830D01*
X102773903Y-44083663D01*
X102835063Y-43855408D01*
X102855659Y-43620000D01*
X102835063Y-43384592D01*
X102787740Y-43207979D01*
X102773905Y-43156344D01*
X102773904Y-43156343D01*
X102773903Y-43156337D01*
X102674035Y-42942171D01*
X102668425Y-42934158D01*
X102538494Y-42748597D01*
X102371402Y-42581506D01*
X102371396Y-42581501D01*
X102185842Y-42451575D01*
X102144614Y-42399997D01*
X120192021Y-42399997D01*
X120192021Y-42400002D01*
X120212277Y-42579789D01*
X120272037Y-42750571D01*
X120276380Y-42757483D01*
X120368297Y-42903767D01*
X120496233Y-43031703D01*
X120649431Y-43127964D01*
X120779212Y-43173376D01*
X120820210Y-43187722D01*
X120999997Y-43207979D01*
X121000000Y-43207979D01*
X121000003Y-43207979D01*
X121107875Y-43195824D01*
X121179792Y-43187721D01*
X121350095Y-43128130D01*
X121357143Y-43125664D01*
X121358006Y-43128130D01*
X121415110Y-43118713D01*
X121442477Y-43126749D01*
X121442857Y-43125664D01*
X121513833Y-43150499D01*
X121620208Y-43187721D01*
X121665156Y-43192785D01*
X121799997Y-43207979D01*
X121800000Y-43207979D01*
X121800003Y-43207979D01*
X121979789Y-43187722D01*
X121987931Y-43184873D01*
X122150569Y-43127964D01*
X122303767Y-43031703D01*
X122431703Y-42903767D01*
X122527964Y-42750569D01*
X122587721Y-42579792D01*
X122587721Y-42579791D01*
X122587722Y-42579789D01*
X122607979Y-42400002D01*
X122607979Y-42399997D01*
X122587722Y-42220210D01*
X122552130Y-42118495D01*
X122527964Y-42049431D01*
X122431703Y-41896233D01*
X122303767Y-41768297D01*
X122275738Y-41750685D01*
X124614691Y-41750685D01*
X124614691Y-41750690D01*
X124634947Y-41930477D01*
X124676570Y-42049428D01*
X124694706Y-42101257D01*
X124790967Y-42254455D01*
X124918903Y-42382391D01*
X125072101Y-42478652D01*
X125201882Y-42524064D01*
X125242880Y-42538410D01*
X125422667Y-42558667D01*
X125422670Y-42558667D01*
X125422673Y-42558667D01*
X125602459Y-42538410D01*
X125602462Y-42538409D01*
X125773239Y-42478652D01*
X125926437Y-42382391D01*
X126054373Y-42254455D01*
X126150634Y-42101257D01*
X126210391Y-41930480D01*
X126210391Y-41930479D01*
X126210392Y-41930477D01*
X126230649Y-41750690D01*
X126230649Y-41750685D01*
X126210392Y-41570898D01*
X126186880Y-41503706D01*
X126183318Y-41433927D01*
X126198928Y-41396778D01*
X126223315Y-41357967D01*
X126275650Y-41311676D01*
X126314425Y-41300720D01*
X126429788Y-41287722D01*
X126429790Y-41287721D01*
X126429792Y-41287721D01*
X126600569Y-41227964D01*
X126753767Y-41131703D01*
X126881703Y-41003767D01*
X126977964Y-40850569D01*
X127037721Y-40679792D01*
X127037721Y-40679791D01*
X127037722Y-40679789D01*
X127057979Y-40500002D01*
X127057979Y-40499997D01*
X127037722Y-40320210D01*
X126999955Y-40212279D01*
X126977964Y-40149431D01*
X126881703Y-39996233D01*
X126753767Y-39868297D01*
X126600569Y-39772036D01*
X126559573Y-39757691D01*
X126429789Y-39712277D01*
X126250003Y-39692021D01*
X126249997Y-39692021D01*
X126070210Y-39712277D01*
X125899428Y-39772037D01*
X125746232Y-39868297D01*
X125618297Y-39996232D01*
X125526686Y-40142031D01*
X125474351Y-40188322D01*
X125435576Y-40199279D01*
X125320210Y-40212277D01*
X125149428Y-40272037D01*
X124996232Y-40368297D01*
X124868297Y-40496232D01*
X124772037Y-40649428D01*
X124712277Y-40820210D01*
X124692021Y-40999997D01*
X124692021Y-41000002D01*
X124712277Y-41179787D01*
X124712279Y-41179794D01*
X124735789Y-41246983D01*
X124739350Y-41316761D01*
X124723742Y-41353906D01*
X124694706Y-41400117D01*
X124634947Y-41570898D01*
X124614691Y-41750685D01*
X122275738Y-41750685D01*
X122268457Y-41746110D01*
X122150571Y-41672037D01*
X122150570Y-41672036D01*
X122150569Y-41672036D01*
X122109573Y-41657691D01*
X121979789Y-41612277D01*
X121800003Y-41592021D01*
X121799997Y-41592021D01*
X121620210Y-41612277D01*
X121482586Y-41660434D01*
X121449431Y-41672036D01*
X121449429Y-41672036D01*
X121442859Y-41674336D01*
X121442000Y-41671882D01*
X121384812Y-41681276D01*
X121357516Y-41673261D01*
X121357141Y-41674336D01*
X121350570Y-41672036D01*
X121350569Y-41672036D01*
X121306926Y-41656764D01*
X121179789Y-41612277D01*
X121000003Y-41592021D01*
X120999997Y-41592021D01*
X120820210Y-41612277D01*
X120649428Y-41672037D01*
X120496232Y-41768297D01*
X120368297Y-41896232D01*
X120272037Y-42049428D01*
X120212277Y-42220210D01*
X120192021Y-42399997D01*
X102144614Y-42399997D01*
X102142217Y-42396998D01*
X102135023Y-42327500D01*
X102166546Y-42265145D01*
X102185842Y-42248425D01*
X102226140Y-42220208D01*
X102371401Y-42118495D01*
X102538495Y-41951401D01*
X102674035Y-41757830D01*
X102773903Y-41543663D01*
X102835063Y-41315408D01*
X102855659Y-41080000D01*
X102835063Y-40844592D01*
X102773903Y-40616337D01*
X102674035Y-40402171D01*
X102668731Y-40394595D01*
X102538494Y-40208597D01*
X102371402Y-40041506D01*
X102371401Y-40041505D01*
X102203844Y-39924180D01*
X102185405Y-39911269D01*
X102141781Y-39856692D01*
X102134588Y-39787193D01*
X102166110Y-39724839D01*
X102185405Y-39708119D01*
X102371082Y-39578105D01*
X102538105Y-39411082D01*
X102673600Y-39217578D01*
X102773429Y-39003492D01*
X102773432Y-39003486D01*
X102830636Y-38790000D01*
X101933012Y-38790000D01*
X101965925Y-38732993D01*
X102000000Y-38605826D01*
X102000000Y-38474174D01*
X101965925Y-38347007D01*
X101933012Y-38290000D01*
X102830636Y-38290000D01*
X102830635Y-38289999D01*
X102773432Y-38076513D01*
X102773429Y-38076507D01*
X102673600Y-37862422D01*
X102673599Y-37862420D01*
X102538113Y-37668926D01*
X102538108Y-37668920D01*
X102371078Y-37501890D01*
X102185405Y-37371879D01*
X102141780Y-37317302D01*
X102134588Y-37247804D01*
X102166110Y-37185449D01*
X102185406Y-37168730D01*
X102242722Y-37128597D01*
X102371401Y-37038495D01*
X102409899Y-36999997D01*
X115792021Y-36999997D01*
X115792021Y-37000002D01*
X115812277Y-37179789D01*
X115851717Y-37292500D01*
X115862098Y-37322169D01*
X115872037Y-37350571D01*
X115890396Y-37379789D01*
X115968297Y-37503767D01*
X116096233Y-37631703D01*
X116249431Y-37727964D01*
X116379212Y-37773376D01*
X116420210Y-37787722D01*
X116599997Y-37807979D01*
X116600000Y-37807979D01*
X116600003Y-37807979D01*
X116779789Y-37787722D01*
X116779792Y-37787721D01*
X116950569Y-37727964D01*
X117034030Y-37675521D01*
X117101263Y-37656521D01*
X117165969Y-37675520D01*
X117249431Y-37727964D01*
X117354109Y-37764592D01*
X117420210Y-37787722D01*
X117599997Y-37807979D01*
X117600000Y-37807979D01*
X117600003Y-37807979D01*
X117779789Y-37787722D01*
X117779792Y-37787721D01*
X117950569Y-37727964D01*
X118103767Y-37631703D01*
X118135473Y-37599997D01*
X120969280Y-37599997D01*
X120969280Y-37600002D01*
X120989536Y-37779789D01*
X121049296Y-37950571D01*
X121128325Y-38076344D01*
X121145556Y-38103767D01*
X121273492Y-38231703D01*
X121426690Y-38327964D01*
X121556471Y-38373376D01*
X121597469Y-38387722D01*
X121777256Y-38407979D01*
X121777259Y-38407979D01*
X121777262Y-38407979D01*
X121957048Y-38387722D01*
X121957051Y-38387721D01*
X122127828Y-38327964D01*
X122251911Y-38249997D01*
X126192021Y-38249997D01*
X126192021Y-38250002D01*
X126212277Y-38429789D01*
X126250842Y-38539999D01*
X126272036Y-38600569D01*
X126368297Y-38753767D01*
X126496233Y-38881703D01*
X126649431Y-38977964D01*
X126779212Y-39023376D01*
X126820210Y-39037722D01*
X126999997Y-39057979D01*
X127000000Y-39057979D01*
X127000003Y-39057979D01*
X127179789Y-39037722D01*
X127179792Y-39037721D01*
X127350569Y-38977964D01*
X127503767Y-38881703D01*
X127631703Y-38753767D01*
X127727964Y-38600569D01*
X127787721Y-38429792D01*
X127787721Y-38429790D01*
X127787722Y-38429788D01*
X127796213Y-38354423D01*
X127823279Y-38290008D01*
X127853456Y-38263314D01*
X127903767Y-38231703D01*
X128031703Y-38103767D01*
X128096905Y-37999999D01*
X134144341Y-37999999D01*
X134144341Y-38000000D01*
X134164936Y-38235403D01*
X134164938Y-38235413D01*
X134226094Y-38463655D01*
X134226096Y-38463659D01*
X134226097Y-38463663D01*
X134292389Y-38605826D01*
X134325965Y-38677830D01*
X134325967Y-38677834D01*
X134394286Y-38775403D01*
X134461505Y-38871401D01*
X134628599Y-39038495D01*
X134725384Y-39106265D01*
X134822165Y-39174032D01*
X134822167Y-39174033D01*
X134822170Y-39174035D01*
X135036337Y-39273903D01*
X135264592Y-39335063D01*
X135452918Y-39351539D01*
X135499999Y-39355659D01*
X135500000Y-39355659D01*
X135500001Y-39355659D01*
X135539234Y-39352226D01*
X135735408Y-39335063D01*
X135963663Y-39273903D01*
X136177830Y-39174035D01*
X136371401Y-39038495D01*
X136538495Y-38871401D01*
X136674035Y-38677830D01*
X136773903Y-38463663D01*
X136835063Y-38235408D01*
X136855659Y-38000000D01*
X136835063Y-37764592D01*
X136780242Y-37559993D01*
X136773905Y-37536344D01*
X136773904Y-37536343D01*
X136773903Y-37536337D01*
X136674035Y-37322171D01*
X136653260Y-37292500D01*
X136538494Y-37128597D01*
X136371402Y-36961506D01*
X136371401Y-36961505D01*
X136185405Y-36831269D01*
X136141781Y-36776692D01*
X136134588Y-36707193D01*
X136166110Y-36644839D01*
X136185405Y-36628119D01*
X136371082Y-36498105D01*
X136538105Y-36331082D01*
X136673600Y-36137578D01*
X136773429Y-35923492D01*
X136773432Y-35923486D01*
X136830636Y-35710000D01*
X135933012Y-35710000D01*
X135965925Y-35652993D01*
X136000000Y-35525826D01*
X136000000Y-35394174D01*
X135965925Y-35267007D01*
X135933012Y-35210000D01*
X136830636Y-35210000D01*
X136830635Y-35209999D01*
X136773432Y-34996513D01*
X136773429Y-34996507D01*
X136673600Y-34782422D01*
X136673599Y-34782420D01*
X136538113Y-34588926D01*
X136538108Y-34588920D01*
X136416053Y-34466865D01*
X136382568Y-34405542D01*
X136387552Y-34335850D01*
X136429424Y-34279917D01*
X136460400Y-34263002D01*
X136549847Y-34229641D01*
X136592326Y-34213798D01*
X136592326Y-34213797D01*
X136592331Y-34213796D01*
X136707546Y-34127546D01*
X136793796Y-34012331D01*
X136844091Y-33877483D01*
X136850500Y-33817873D01*
X136850499Y-32022128D01*
X136844091Y-31962517D01*
X136842445Y-31958105D01*
X136793797Y-31827671D01*
X136793793Y-31827664D01*
X136707547Y-31712455D01*
X136707544Y-31712452D01*
X136592335Y-31626206D01*
X136592328Y-31626202D01*
X136457482Y-31575908D01*
X136457483Y-31575908D01*
X136397883Y-31569501D01*
X136397881Y-31569500D01*
X136397873Y-31569500D01*
X136397864Y-31569500D01*
X134602129Y-31569500D01*
X134602123Y-31569501D01*
X134542516Y-31575908D01*
X134407671Y-31626202D01*
X134407664Y-31626206D01*
X134292455Y-31712452D01*
X134292452Y-31712455D01*
X134206206Y-31827664D01*
X134206202Y-31827671D01*
X134155908Y-31962517D01*
X134151879Y-32000000D01*
X134149501Y-32022123D01*
X134149500Y-32022135D01*
X134149500Y-33817870D01*
X134149501Y-33817876D01*
X134155908Y-33877483D01*
X134206202Y-34012328D01*
X134206206Y-34012335D01*
X134292452Y-34127544D01*
X134292455Y-34127547D01*
X134407664Y-34213793D01*
X134407671Y-34213797D01*
X134469902Y-34237007D01*
X134539598Y-34263002D01*
X134595531Y-34304873D01*
X134619949Y-34370337D01*
X134605098Y-34438610D01*
X134583947Y-34466865D01*
X134461886Y-34588926D01*
X134326400Y-34782420D01*
X134326399Y-34782422D01*
X134226570Y-34996507D01*
X134226567Y-34996513D01*
X134169364Y-35209999D01*
X134169364Y-35210000D01*
X135066988Y-35210000D01*
X135034075Y-35267007D01*
X135000000Y-35394174D01*
X135000000Y-35525826D01*
X135034075Y-35652993D01*
X135066988Y-35710000D01*
X134169364Y-35710000D01*
X134226567Y-35923486D01*
X134226570Y-35923492D01*
X134326399Y-36137578D01*
X134461894Y-36331082D01*
X134628917Y-36498105D01*
X134814595Y-36628119D01*
X134858219Y-36682696D01*
X134865412Y-36752195D01*
X134833890Y-36814549D01*
X134814595Y-36831269D01*
X134628594Y-36961508D01*
X134461505Y-37128597D01*
X134325965Y-37322169D01*
X134325964Y-37322171D01*
X134226098Y-37536335D01*
X134226094Y-37536344D01*
X134164938Y-37764586D01*
X134164936Y-37764596D01*
X134144341Y-37999999D01*
X128096905Y-37999999D01*
X128127964Y-37950569D01*
X128187721Y-37779792D01*
X128187721Y-37779791D01*
X128187722Y-37779789D01*
X128207979Y-37600002D01*
X128207979Y-37599997D01*
X128187722Y-37420210D01*
X128168741Y-37365965D01*
X128127964Y-37249431D01*
X128031703Y-37096233D01*
X127903767Y-36968297D01*
X127750569Y-36872036D01*
X127709573Y-36857691D01*
X127579789Y-36812277D01*
X127400003Y-36792021D01*
X127399997Y-36792021D01*
X127220210Y-36812277D01*
X127049428Y-36872037D01*
X126896232Y-36968297D01*
X126768297Y-37096232D01*
X126672036Y-37249429D01*
X126612277Y-37420213D01*
X126603785Y-37495579D01*
X126576717Y-37559993D01*
X126546539Y-37586686D01*
X126496237Y-37618294D01*
X126496230Y-37618299D01*
X126368297Y-37746232D01*
X126272037Y-37899428D01*
X126212277Y-38070210D01*
X126192021Y-38249997D01*
X122251911Y-38249997D01*
X122281026Y-38231703D01*
X122408962Y-38103767D01*
X122505223Y-37950569D01*
X122564980Y-37779792D01*
X122564980Y-37779791D01*
X122564981Y-37779789D01*
X122585238Y-37600002D01*
X122585238Y-37599997D01*
X122564981Y-37420210D01*
X122546000Y-37365965D01*
X122505223Y-37249431D01*
X122474161Y-37199997D01*
X123392021Y-37199997D01*
X123392021Y-37200002D01*
X123412277Y-37379789D01*
X123452794Y-37495579D01*
X123467058Y-37536344D01*
X123472037Y-37550571D01*
X123514592Y-37618297D01*
X123568297Y-37703767D01*
X123696233Y-37831703D01*
X123849431Y-37927964D01*
X123979212Y-37973376D01*
X124020210Y-37987722D01*
X124199997Y-38007979D01*
X124200000Y-38007979D01*
X124200003Y-38007979D01*
X124379789Y-37987722D01*
X124379792Y-37987721D01*
X124550569Y-37927964D01*
X124703767Y-37831703D01*
X124831703Y-37703767D01*
X124927964Y-37550569D01*
X124987721Y-37379792D01*
X124987721Y-37379791D01*
X124987722Y-37379789D01*
X125007979Y-37200002D01*
X125007979Y-37199997D01*
X124987722Y-37020210D01*
X124967180Y-36961505D01*
X124927964Y-36849431D01*
X124831703Y-36696233D01*
X124703767Y-36568297D01*
X124550571Y-36472037D01*
X124550570Y-36472036D01*
X124550569Y-36472036D01*
X124509573Y-36457691D01*
X124379789Y-36412277D01*
X124200003Y-36392021D01*
X124199997Y-36392021D01*
X124020210Y-36412277D01*
X123849428Y-36472037D01*
X123696232Y-36568297D01*
X123568297Y-36696232D01*
X123472037Y-36849428D01*
X123412277Y-37020210D01*
X123392021Y-37199997D01*
X122474161Y-37199997D01*
X122408962Y-37096233D01*
X122281026Y-36968297D01*
X122127828Y-36872036D01*
X122086832Y-36857691D01*
X121957048Y-36812277D01*
X121777262Y-36792021D01*
X121777256Y-36792021D01*
X121597469Y-36812277D01*
X121426687Y-36872037D01*
X121273491Y-36968297D01*
X121145556Y-37096232D01*
X121049296Y-37249428D01*
X120989536Y-37420210D01*
X120969280Y-37599997D01*
X118135473Y-37599997D01*
X118231703Y-37503767D01*
X118327964Y-37350569D01*
X118387721Y-37179792D01*
X118387721Y-37179791D01*
X118387722Y-37179789D01*
X118407979Y-37000002D01*
X118407979Y-36999997D01*
X118387722Y-36820210D01*
X118354790Y-36726097D01*
X118327964Y-36649431D01*
X118231703Y-36496233D01*
X118103767Y-36368297D01*
X118039578Y-36327964D01*
X117950571Y-36272037D01*
X117950570Y-36272036D01*
X117950569Y-36272036D01*
X117909573Y-36257691D01*
X117779789Y-36212277D01*
X117600003Y-36192021D01*
X117599997Y-36192021D01*
X117420210Y-36212277D01*
X117249428Y-36272037D01*
X117165972Y-36324476D01*
X117098735Y-36343476D01*
X117034028Y-36324476D01*
X116950571Y-36272037D01*
X116950570Y-36272036D01*
X116950569Y-36272036D01*
X116909573Y-36257691D01*
X116779789Y-36212277D01*
X116600003Y-36192021D01*
X116599997Y-36192021D01*
X116420210Y-36212277D01*
X116249428Y-36272037D01*
X116096232Y-36368297D01*
X115968297Y-36496232D01*
X115872037Y-36649428D01*
X115812277Y-36820210D01*
X115792021Y-36999997D01*
X102409899Y-36999997D01*
X102538495Y-36871401D01*
X102674035Y-36677830D01*
X102773903Y-36463663D01*
X102835063Y-36235408D01*
X102855659Y-36000000D01*
X102835063Y-35764592D01*
X102773903Y-35536337D01*
X102674035Y-35322171D01*
X102668425Y-35314158D01*
X102538494Y-35128597D01*
X102371402Y-34961506D01*
X102371396Y-34961501D01*
X102185842Y-34831575D01*
X102142217Y-34776998D01*
X102135023Y-34707500D01*
X102166546Y-34645145D01*
X102185842Y-34628425D01*
X102242261Y-34588920D01*
X102371401Y-34498495D01*
X102538495Y-34331401D01*
X102674035Y-34137830D01*
X102773903Y-33923663D01*
X102835063Y-33695408D01*
X102855659Y-33460000D01*
X102835063Y-33224592D01*
X102773903Y-32996337D01*
X102674035Y-32782171D01*
X102668425Y-32774158D01*
X102538494Y-32588597D01*
X102371402Y-32421506D01*
X102371401Y-32421505D01*
X102248055Y-32335137D01*
X112192021Y-32335137D01*
X112192021Y-32335142D01*
X112212277Y-32514929D01*
X112234974Y-32579792D01*
X112272036Y-32685709D01*
X112368297Y-32838907D01*
X112496233Y-32966843D01*
X112649431Y-33063104D01*
X112820208Y-33122861D01*
X112820211Y-33122862D01*
X112904591Y-33132369D01*
X112969005Y-33159435D01*
X113008560Y-33217030D01*
X113011139Y-33273071D01*
X113013058Y-33273288D01*
X112992021Y-33459997D01*
X112992021Y-33460004D01*
X112992926Y-33468040D01*
X112980868Y-33536861D01*
X112933516Y-33588238D01*
X112883590Y-33605137D01*
X112820211Y-33612278D01*
X112649429Y-33672038D01*
X112496233Y-33768298D01*
X112368298Y-33896233D01*
X112272038Y-34049429D01*
X112212278Y-34220211D01*
X112192022Y-34399998D01*
X112192022Y-34400003D01*
X112212278Y-34579790D01*
X112272038Y-34750572D01*
X112288643Y-34776998D01*
X112368298Y-34903768D01*
X112496234Y-35031704D01*
X112541109Y-35059901D01*
X112637917Y-35120730D01*
X112649432Y-35127965D01*
X112820209Y-35187722D01*
X112870544Y-35193393D01*
X112934957Y-35220458D01*
X112944342Y-35228932D01*
X113288276Y-35572866D01*
X113288305Y-35572897D01*
X113378523Y-35663115D01*
X113378527Y-35663118D01*
X113480967Y-35731567D01*
X113480973Y-35731570D01*
X113480974Y-35731571D01*
X113594808Y-35778723D01*
X113655231Y-35790741D01*
X113715653Y-35802760D01*
X113715654Y-35802760D01*
X119468273Y-35802760D01*
X119535312Y-35822445D01*
X119581067Y-35875249D01*
X119585315Y-35885806D01*
X119607976Y-35950570D01*
X119704237Y-36103767D01*
X119832173Y-36231703D01*
X119985371Y-36327964D01*
X120100637Y-36368297D01*
X120156150Y-36387722D01*
X120335937Y-36407979D01*
X120335940Y-36407979D01*
X120335943Y-36407979D01*
X120515729Y-36387722D01*
X120515732Y-36387721D01*
X120686509Y-36327964D01*
X120839707Y-36231703D01*
X120967643Y-36103767D01*
X121063904Y-35950569D01*
X121084739Y-35891025D01*
X121125461Y-35834249D01*
X121190413Y-35808501D01*
X121198779Y-35808116D01*
X121199997Y-35807978D01*
X121200000Y-35807979D01*
X121282978Y-35798629D01*
X121379789Y-35787722D01*
X121379792Y-35787721D01*
X121550569Y-35727964D01*
X121703767Y-35631703D01*
X121831703Y-35503767D01*
X121927964Y-35350569D01*
X121987721Y-35179792D01*
X121988450Y-35173318D01*
X121990137Y-35158356D01*
X122017204Y-35093943D01*
X122074800Y-35054388D01*
X122113357Y-35048241D01*
X122313255Y-35048241D01*
X122380294Y-35067926D01*
X122426049Y-35120730D01*
X122430296Y-35131286D01*
X122472034Y-35250565D01*
X122472035Y-35250569D01*
X122562269Y-35394174D01*
X122568297Y-35403767D01*
X122696233Y-35531703D01*
X122849431Y-35627964D01*
X122979212Y-35673376D01*
X123020210Y-35687722D01*
X123199997Y-35707979D01*
X123200000Y-35707979D01*
X123200003Y-35707979D01*
X123379789Y-35687722D01*
X123379792Y-35687721D01*
X123550569Y-35627964D01*
X123595078Y-35599997D01*
X126992021Y-35599997D01*
X126992021Y-35600002D01*
X127012277Y-35779789D01*
X127051201Y-35891025D01*
X127062561Y-35923492D01*
X127072037Y-35950571D01*
X127168297Y-36103767D01*
X127296233Y-36231703D01*
X127449431Y-36327964D01*
X127564697Y-36368297D01*
X127620210Y-36387722D01*
X127799997Y-36407979D01*
X127800000Y-36407979D01*
X127800003Y-36407979D01*
X127979789Y-36387722D01*
X127979792Y-36387721D01*
X128150569Y-36327964D01*
X128303767Y-36231703D01*
X128431703Y-36103767D01*
X128527964Y-35950569D01*
X128587721Y-35779792D01*
X128587721Y-35779791D01*
X128587722Y-35779789D01*
X128607979Y-35600002D01*
X128607979Y-35599997D01*
X128587722Y-35420210D01*
X128563353Y-35350569D01*
X128527964Y-35249431D01*
X128431703Y-35096233D01*
X128303767Y-34968297D01*
X128201070Y-34903768D01*
X128150571Y-34872037D01*
X128150570Y-34872036D01*
X128150569Y-34872036D01*
X128109573Y-34857691D01*
X127979789Y-34812277D01*
X127800003Y-34792021D01*
X127799997Y-34792021D01*
X127620210Y-34812277D01*
X127449428Y-34872037D01*
X127296232Y-34968297D01*
X127168297Y-35096232D01*
X127072037Y-35249428D01*
X127012277Y-35420210D01*
X126992021Y-35599997D01*
X123595078Y-35599997D01*
X123703767Y-35531703D01*
X123831703Y-35403767D01*
X123927964Y-35250569D01*
X123987721Y-35079792D01*
X123987721Y-35079791D01*
X123987722Y-35079789D01*
X124007979Y-34900002D01*
X124007979Y-34899997D01*
X123987722Y-34720210D01*
X123967802Y-34663282D01*
X123927964Y-34549431D01*
X123927962Y-34549428D01*
X123927962Y-34549427D01*
X123906941Y-34515973D01*
X123887940Y-34448737D01*
X123906941Y-34384027D01*
X123927962Y-34350572D01*
X123927961Y-34350572D01*
X123927964Y-34350569D01*
X123987721Y-34179792D01*
X123987721Y-34179791D01*
X123987722Y-34179789D01*
X124007979Y-34000002D01*
X124007979Y-33999997D01*
X123987721Y-33820209D01*
X123986903Y-33817872D01*
X123944050Y-33695403D01*
X123925664Y-33642857D01*
X123928130Y-33641993D01*
X123918713Y-33584890D01*
X123926749Y-33557522D01*
X123925664Y-33557143D01*
X123959655Y-33460000D01*
X123987721Y-33379792D01*
X124007979Y-33200000D01*
X124003408Y-33159435D01*
X123987721Y-33020209D01*
X123979370Y-32996344D01*
X123927964Y-32849431D01*
X123925664Y-32842857D01*
X123928130Y-32841993D01*
X123918713Y-32784890D01*
X123926749Y-32757522D01*
X123925664Y-32757143D01*
X123984639Y-32588599D01*
X123987721Y-32579792D01*
X124007979Y-32400000D01*
X123987721Y-32220208D01*
X123955523Y-32128192D01*
X123925664Y-32042857D01*
X123928130Y-32041993D01*
X123918713Y-31984890D01*
X123926749Y-31957522D01*
X123925664Y-31957143D01*
X123969672Y-31831373D01*
X123987721Y-31779792D01*
X124005026Y-31626206D01*
X124007979Y-31600002D01*
X124007979Y-31599997D01*
X123987722Y-31420210D01*
X123969784Y-31368947D01*
X123927964Y-31249431D01*
X123875521Y-31165969D01*
X123856521Y-31098737D01*
X123875520Y-31034030D01*
X123927964Y-30950569D01*
X123987721Y-30779792D01*
X123987721Y-30779791D01*
X123987722Y-30779789D01*
X124007979Y-30600002D01*
X124007979Y-30599997D01*
X123987721Y-30420209D01*
X123925664Y-30242857D01*
X123928130Y-30241993D01*
X123918713Y-30184890D01*
X123926749Y-30157522D01*
X123925664Y-30157143D01*
X123963530Y-30048926D01*
X123987721Y-29979792D01*
X124007979Y-29800000D01*
X124007057Y-29791813D01*
X123987722Y-29620210D01*
X123962710Y-29548730D01*
X123927964Y-29449431D01*
X123831703Y-29296233D01*
X123703767Y-29168297D01*
X123683391Y-29155494D01*
X123550571Y-29072037D01*
X123550570Y-29072036D01*
X123550569Y-29072036D01*
X123509573Y-29057691D01*
X123379789Y-29012277D01*
X123200003Y-28992021D01*
X123199997Y-28992021D01*
X123020210Y-29012277D01*
X122849428Y-29072037D01*
X122716609Y-29155494D01*
X122650637Y-29174500D01*
X116106778Y-29174500D01*
X116082588Y-29172117D01*
X116053423Y-29166316D01*
X115557547Y-29166316D01*
X115491575Y-29147310D01*
X115488947Y-29145659D01*
X115446586Y-29119041D01*
X115358755Y-29063853D01*
X115358754Y-29063852D01*
X115358753Y-29063852D01*
X115309295Y-29046546D01*
X115187973Y-29004093D01*
X115008187Y-28983837D01*
X115008181Y-28983837D01*
X114828394Y-29004093D01*
X114657612Y-29063853D01*
X114504416Y-29160113D01*
X114376481Y-29288048D01*
X114280221Y-29441244D01*
X114220461Y-29612026D01*
X114200205Y-29791813D01*
X114200205Y-29791818D01*
X114220461Y-29971605D01*
X114280221Y-30142387D01*
X114376481Y-30295583D01*
X114494697Y-30413799D01*
X114528182Y-30475122D01*
X114523198Y-30544814D01*
X114481326Y-30600747D01*
X114415862Y-30625164D01*
X114378806Y-30620221D01*
X114378398Y-30622012D01*
X114371608Y-30620462D01*
X114191819Y-30600205D01*
X114191813Y-30600205D01*
X114012026Y-30620461D01*
X113841244Y-30680221D01*
X113688048Y-30776481D01*
X113560113Y-30904416D01*
X113463853Y-31057612D01*
X113404093Y-31228394D01*
X113383837Y-31408181D01*
X113383837Y-31408182D01*
X113386448Y-31431360D01*
X113374391Y-31500182D01*
X113327041Y-31551560D01*
X113259430Y-31569183D01*
X113222273Y-31562283D01*
X113179790Y-31547418D01*
X113000003Y-31527161D01*
X112999997Y-31527161D01*
X112820210Y-31547417D01*
X112649428Y-31607177D01*
X112496232Y-31703437D01*
X112368297Y-31831372D01*
X112272037Y-31984568D01*
X112212277Y-32155350D01*
X112192021Y-32335137D01*
X102248055Y-32335137D01*
X102185405Y-32291269D01*
X102141781Y-32236692D01*
X102134588Y-32167193D01*
X102166110Y-32104839D01*
X102185405Y-32088119D01*
X102371082Y-31958105D01*
X102538105Y-31791082D01*
X102673600Y-31597578D01*
X102773429Y-31383492D01*
X102773432Y-31383486D01*
X102830636Y-31170000D01*
X101933012Y-31170000D01*
X101965925Y-31112993D01*
X102000000Y-30985826D01*
X102000000Y-30854174D01*
X101965925Y-30727007D01*
X101933012Y-30670000D01*
X102830636Y-30670000D01*
X102830635Y-30669999D01*
X102773432Y-30456513D01*
X102773429Y-30456507D01*
X102673600Y-30242422D01*
X102673599Y-30242420D01*
X102538113Y-30048926D01*
X102538108Y-30048920D01*
X102371078Y-29881890D01*
X102185405Y-29751879D01*
X102141780Y-29697302D01*
X102134588Y-29627804D01*
X102166110Y-29565449D01*
X102185406Y-29548730D01*
X102371401Y-29418495D01*
X102538495Y-29251401D01*
X102674035Y-29057830D01*
X102773903Y-28843663D01*
X102835063Y-28615408D01*
X102855659Y-28380000D01*
X102835063Y-28144592D01*
X102773903Y-27916337D01*
X102674035Y-27702171D01*
X102668425Y-27694158D01*
X102538494Y-27508597D01*
X102429893Y-27399997D01*
X114992021Y-27399997D01*
X114992021Y-27400002D01*
X115012277Y-27579789D01*
X115052297Y-27694158D01*
X115070079Y-27744977D01*
X115072037Y-27750571D01*
X115096812Y-27790000D01*
X115168297Y-27903767D01*
X115296233Y-28031703D01*
X115449431Y-28127964D01*
X115579212Y-28173376D01*
X115620210Y-28187722D01*
X115799997Y-28207979D01*
X115800000Y-28207979D01*
X115800003Y-28207979D01*
X115979789Y-28187722D01*
X115979792Y-28187721D01*
X116150569Y-28127964D01*
X116303767Y-28031703D01*
X116431703Y-27903767D01*
X116503188Y-27789999D01*
X134169341Y-27789999D01*
X134169341Y-27790000D01*
X134189936Y-28025403D01*
X134189938Y-28025413D01*
X134251094Y-28253655D01*
X134251096Y-28253659D01*
X134251097Y-28253663D01*
X134310009Y-28379999D01*
X134350965Y-28467830D01*
X134350967Y-28467834D01*
X134454297Y-28615403D01*
X134486505Y-28661401D01*
X134653599Y-28828495D01*
X134750384Y-28896265D01*
X134847165Y-28964032D01*
X134847167Y-28964033D01*
X134847170Y-28964035D01*
X135061337Y-29063903D01*
X135061343Y-29063904D01*
X135061344Y-29063905D01*
X135091690Y-29072036D01*
X135289592Y-29125063D01*
X135477918Y-29141539D01*
X135524999Y-29145659D01*
X135525000Y-29145659D01*
X135525001Y-29145659D01*
X135564234Y-29142226D01*
X135760408Y-29125063D01*
X135988663Y-29063903D01*
X136202830Y-28964035D01*
X136396401Y-28828495D01*
X136563495Y-28661401D01*
X136699035Y-28467830D01*
X136798903Y-28253663D01*
X136860063Y-28025408D01*
X136880659Y-27790000D01*
X136860063Y-27554592D01*
X136807499Y-27358418D01*
X136798905Y-27326344D01*
X136798904Y-27326343D01*
X136798903Y-27326337D01*
X136699035Y-27112171D01*
X136681760Y-27087500D01*
X136563496Y-26918600D01*
X136523389Y-26878493D01*
X136441179Y-26796283D01*
X136407696Y-26734963D01*
X136412680Y-26665271D01*
X136454551Y-26609337D01*
X136485529Y-26592422D01*
X136617086Y-26543354D01*
X136617093Y-26543350D01*
X136732187Y-26457190D01*
X136732190Y-26457187D01*
X136818350Y-26342093D01*
X136818354Y-26342086D01*
X136868596Y-26207379D01*
X136868598Y-26207372D01*
X136874999Y-26147844D01*
X136875000Y-26147827D01*
X136875000Y-25500000D01*
X135958012Y-25500000D01*
X135990925Y-25442993D01*
X136025000Y-25315826D01*
X136025000Y-25184174D01*
X135990925Y-25057007D01*
X135958012Y-25000000D01*
X136875000Y-25000000D01*
X136875000Y-24352172D01*
X136874999Y-24352155D01*
X136868598Y-24292627D01*
X136868596Y-24292620D01*
X136818354Y-24157913D01*
X136818350Y-24157906D01*
X136732190Y-24042812D01*
X136732187Y-24042809D01*
X136617093Y-23956649D01*
X136617086Y-23956645D01*
X136482379Y-23906403D01*
X136482372Y-23906401D01*
X136422844Y-23900000D01*
X135775000Y-23900000D01*
X135775000Y-24816988D01*
X135717993Y-24784075D01*
X135590826Y-24750000D01*
X135459174Y-24750000D01*
X135332007Y-24784075D01*
X135275000Y-24816988D01*
X135275000Y-23900000D01*
X134627155Y-23900000D01*
X134567627Y-23906401D01*
X134567620Y-23906403D01*
X134432913Y-23956645D01*
X134432906Y-23956649D01*
X134317812Y-24042809D01*
X134317809Y-24042812D01*
X134231649Y-24157906D01*
X134231645Y-24157913D01*
X134181403Y-24292620D01*
X134181401Y-24292627D01*
X134175000Y-24352155D01*
X134175000Y-25000000D01*
X135091988Y-25000000D01*
X135059075Y-25057007D01*
X135025000Y-25184174D01*
X135025000Y-25315826D01*
X135059075Y-25442993D01*
X135091988Y-25500000D01*
X134175000Y-25500000D01*
X134175000Y-26147844D01*
X134181401Y-26207372D01*
X134181403Y-26207379D01*
X134231645Y-26342086D01*
X134231649Y-26342093D01*
X134317809Y-26457187D01*
X134317812Y-26457190D01*
X134432906Y-26543350D01*
X134432913Y-26543354D01*
X134564470Y-26592421D01*
X134620403Y-26634292D01*
X134644821Y-26699756D01*
X134629970Y-26768029D01*
X134608819Y-26796284D01*
X134486503Y-26918600D01*
X134350965Y-27112169D01*
X134350964Y-27112171D01*
X134251098Y-27326335D01*
X134251094Y-27326344D01*
X134189938Y-27554586D01*
X134189936Y-27554596D01*
X134169341Y-27789999D01*
X116503188Y-27789999D01*
X116527964Y-27750569D01*
X116587721Y-27579792D01*
X116587721Y-27579791D01*
X116587722Y-27579789D01*
X116607979Y-27400002D01*
X116607979Y-27399997D01*
X116587722Y-27220210D01*
X116565603Y-27156998D01*
X116527964Y-27049431D01*
X116431703Y-26896233D01*
X116303767Y-26768297D01*
X116266665Y-26744984D01*
X116150571Y-26672037D01*
X116150570Y-26672036D01*
X116150569Y-26672036D01*
X116109573Y-26657691D01*
X115979789Y-26612277D01*
X115800003Y-26592021D01*
X115799997Y-26592021D01*
X115620210Y-26612277D01*
X115449428Y-26672037D01*
X115296232Y-26768297D01*
X115168297Y-26896232D01*
X115072037Y-27049428D01*
X115012277Y-27220210D01*
X114992021Y-27399997D01*
X102429893Y-27399997D01*
X102371402Y-27341506D01*
X102371396Y-27341501D01*
X102185842Y-27211575D01*
X102142217Y-27156998D01*
X102135023Y-27087500D01*
X102166546Y-27025145D01*
X102185842Y-27008425D01*
X102208026Y-26992891D01*
X102371401Y-26878495D01*
X102538495Y-26711401D01*
X102674035Y-26517830D01*
X102773903Y-26303663D01*
X102835063Y-26075408D01*
X102855659Y-25840000D01*
X102835063Y-25604592D01*
X102773903Y-25376337D01*
X102674035Y-25162171D01*
X102560483Y-25000000D01*
X102538494Y-24968597D01*
X102371402Y-24801506D01*
X102371395Y-24801501D01*
X102177834Y-24665967D01*
X102177830Y-24665965D01*
X102177828Y-24665964D01*
X101963663Y-24566097D01*
X101963659Y-24566096D01*
X101963655Y-24566094D01*
X101735413Y-24504938D01*
X101735403Y-24504936D01*
X101500001Y-24484341D01*
X101499999Y-24484341D01*
X101264596Y-24504936D01*
X101264586Y-24504938D01*
X101036344Y-24566094D01*
X101036335Y-24566098D01*
X100822171Y-24665964D01*
X100822169Y-24665965D01*
X100628600Y-24801503D01*
X100506673Y-24923430D01*
X100445350Y-24956914D01*
X100375658Y-24951930D01*
X100319725Y-24910058D01*
X100302810Y-24879081D01*
X100253797Y-24747671D01*
X100253793Y-24747664D01*
X100167547Y-24632455D01*
X100167544Y-24632452D01*
X100052335Y-24546206D01*
X100052328Y-24546202D01*
X99917482Y-24495908D01*
X99917483Y-24495908D01*
X99857883Y-24489501D01*
X99857881Y-24489500D01*
X99857873Y-24489500D01*
X99857864Y-24489500D01*
X98062129Y-24489500D01*
X98062123Y-24489501D01*
X98002516Y-24495908D01*
X97867671Y-24546202D01*
X97867664Y-24546206D01*
X97752455Y-24632452D01*
X97752452Y-24632455D01*
X97666206Y-24747664D01*
X97666202Y-24747671D01*
X97615908Y-24882517D01*
X97609501Y-24942116D01*
X97609500Y-24942135D01*
X97609500Y-26737870D01*
X97609501Y-26737876D01*
X97615908Y-26797483D01*
X97666202Y-26932328D01*
X97666206Y-26932335D01*
X97752452Y-27047544D01*
X97752455Y-27047547D01*
X97867664Y-27133793D01*
X97867671Y-27133797D01*
X97999081Y-27182810D01*
X98055015Y-27224681D01*
X98079432Y-27290145D01*
X98064580Y-27358418D01*
X98043430Y-27386673D01*
X97921503Y-27508600D01*
X97785965Y-27702169D01*
X97785964Y-27702171D01*
X97686098Y-27916335D01*
X97686094Y-27916344D01*
X97624938Y-28144586D01*
X97624936Y-28144596D01*
X97604341Y-28379999D01*
X96000000Y-28379999D01*
X96000000Y-19001525D01*
X96000037Y-18998490D01*
X96002145Y-18912421D01*
X96002146Y-18912420D01*
X96002145Y-18912415D01*
X96004490Y-18891272D01*
X96038362Y-18720983D01*
X96045412Y-18697741D01*
X96111274Y-18538738D01*
X96122726Y-18517314D01*
X96218338Y-18374219D01*
X96233751Y-18355439D01*
X96355439Y-18233751D01*
X96374219Y-18218338D01*
X96517314Y-18122726D01*
X96538738Y-18111274D01*
X96697741Y-18045412D01*
X96720983Y-18038362D01*
X96891272Y-18004490D01*
X96912415Y-18002145D01*
X96993037Y-18000170D01*
X96998491Y-18000037D01*
X97001527Y-18000000D01*
X136998473Y-18000000D01*
X137001509Y-18000037D01*
G37*
%TD.AperFunction*%
%TD*%
M02*
