%TF.GenerationSoftware,KiCad,Pcbnew,8.0.6*%
%TF.CreationDate,2024-12-02T04:17:25+07:00*%
%TF.ProjectId,PCB,5043422e-6b69-4636-9164-5f7063625858,rev?*%
%TF.SameCoordinates,Original*%
%TF.FileFunction,Drillmap*%
%TF.FilePolarity,Positive*%
%FSLAX45Y45*%
G04 Gerber Fmt 4.5, Leading zero omitted, Abs format (unit mm)*
G04 Created by KiCad (PCBNEW 8.0.6) date 2024-12-02 04:17:25*
%MOMM*%
%LPD*%
G01*
G04 APERTURE LIST*
%ADD10C,0.100000*%
%ADD11C,0.200000*%
G04 APERTURE END LIST*
D10*
X9800000Y-9000000D02*
G75*
G02*
X9600000Y-8800000I0J200000D01*
G01*
X13798579Y-8798579D02*
G75*
G02*
X13598579Y-8998579I-200000J0D01*
G01*
X13700000Y-1800000D02*
G75*
G02*
X13800000Y-1900000I0J-100000D01*
G01*
X9600000Y-1900000D02*
G75*
G02*
X9700000Y-1800000I100000J0D01*
G01*
X9600000Y-8800000D02*
X9600000Y-1900000D01*
X13598579Y-8998579D02*
X9800000Y-9000000D01*
X13800000Y-1900000D02*
X13798579Y-8798579D01*
X9700000Y-1800000D02*
X13700000Y-1800000D01*
D11*
D10*
X11610500Y-8225000D02*
X11675500Y-8290000D01*
X11675500Y-8225000D02*
X11610500Y-8290000D01*
X12188500Y-8225000D02*
X12253500Y-8290000D01*
X12253500Y-8225000D02*
X12188500Y-8290000D01*
D11*
X9855777Y-9316484D02*
X9855777Y-9116484D01*
X9855777Y-9116484D02*
X9903396Y-9116484D01*
X9903396Y-9116484D02*
X9931967Y-9126008D01*
X9931967Y-9126008D02*
X9951015Y-9145055D01*
X9951015Y-9145055D02*
X9960539Y-9164103D01*
X9960539Y-9164103D02*
X9970063Y-9202198D01*
X9970063Y-9202198D02*
X9970063Y-9230769D01*
X9970063Y-9230769D02*
X9960539Y-9268865D01*
X9960539Y-9268865D02*
X9951015Y-9287912D01*
X9951015Y-9287912D02*
X9931967Y-9306960D01*
X9931967Y-9306960D02*
X9903396Y-9316484D01*
X9903396Y-9316484D02*
X9855777Y-9316484D01*
X10055777Y-9316484D02*
X10055777Y-9183150D01*
X10055777Y-9221246D02*
X10065301Y-9202198D01*
X10065301Y-9202198D02*
X10074824Y-9192674D01*
X10074824Y-9192674D02*
X10093872Y-9183150D01*
X10093872Y-9183150D02*
X10112920Y-9183150D01*
X10179586Y-9316484D02*
X10179586Y-9183150D01*
X10179586Y-9116484D02*
X10170063Y-9126008D01*
X10170063Y-9126008D02*
X10179586Y-9135531D01*
X10179586Y-9135531D02*
X10189110Y-9126008D01*
X10189110Y-9126008D02*
X10179586Y-9116484D01*
X10179586Y-9116484D02*
X10179586Y-9135531D01*
X10303396Y-9316484D02*
X10284348Y-9306960D01*
X10284348Y-9306960D02*
X10274824Y-9287912D01*
X10274824Y-9287912D02*
X10274824Y-9116484D01*
X10408158Y-9316484D02*
X10389110Y-9306960D01*
X10389110Y-9306960D02*
X10379586Y-9287912D01*
X10379586Y-9287912D02*
X10379586Y-9116484D01*
X10636729Y-9316484D02*
X10636729Y-9116484D01*
X10636729Y-9116484D02*
X10703396Y-9259341D01*
X10703396Y-9259341D02*
X10770063Y-9116484D01*
X10770063Y-9116484D02*
X10770063Y-9316484D01*
X10951015Y-9316484D02*
X10951015Y-9211722D01*
X10951015Y-9211722D02*
X10941491Y-9192674D01*
X10941491Y-9192674D02*
X10922444Y-9183150D01*
X10922444Y-9183150D02*
X10884348Y-9183150D01*
X10884348Y-9183150D02*
X10865301Y-9192674D01*
X10951015Y-9306960D02*
X10931967Y-9316484D01*
X10931967Y-9316484D02*
X10884348Y-9316484D01*
X10884348Y-9316484D02*
X10865301Y-9306960D01*
X10865301Y-9306960D02*
X10855777Y-9287912D01*
X10855777Y-9287912D02*
X10855777Y-9268865D01*
X10855777Y-9268865D02*
X10865301Y-9249817D01*
X10865301Y-9249817D02*
X10884348Y-9240293D01*
X10884348Y-9240293D02*
X10931967Y-9240293D01*
X10931967Y-9240293D02*
X10951015Y-9230769D01*
X11046253Y-9183150D02*
X11046253Y-9383150D01*
X11046253Y-9192674D02*
X11065301Y-9183150D01*
X11065301Y-9183150D02*
X11103396Y-9183150D01*
X11103396Y-9183150D02*
X11122444Y-9192674D01*
X11122444Y-9192674D02*
X11131967Y-9202198D01*
X11131967Y-9202198D02*
X11141491Y-9221246D01*
X11141491Y-9221246D02*
X11141491Y-9278388D01*
X11141491Y-9278388D02*
X11131967Y-9297436D01*
X11131967Y-9297436D02*
X11122444Y-9306960D01*
X11122444Y-9306960D02*
X11103396Y-9316484D01*
X11103396Y-9316484D02*
X11065301Y-9316484D01*
X11065301Y-9316484D02*
X11046253Y-9306960D01*
X11227205Y-9297436D02*
X11236729Y-9306960D01*
X11236729Y-9306960D02*
X11227205Y-9316484D01*
X11227205Y-9316484D02*
X11217682Y-9306960D01*
X11217682Y-9306960D02*
X11227205Y-9297436D01*
X11227205Y-9297436D02*
X11227205Y-9316484D01*
X11227205Y-9192674D02*
X11236729Y-9202198D01*
X11236729Y-9202198D02*
X11227205Y-9211722D01*
X11227205Y-9211722D02*
X11217682Y-9202198D01*
X11217682Y-9202198D02*
X11227205Y-9192674D01*
X11227205Y-9192674D02*
X11227205Y-9211722D01*
D10*
X9530000Y-9612500D02*
X9595000Y-9677500D01*
X9595000Y-9612500D02*
X9530000Y-9677500D01*
D11*
X9893872Y-9536484D02*
X9912920Y-9536484D01*
X9912920Y-9536484D02*
X9931967Y-9546008D01*
X9931967Y-9546008D02*
X9941491Y-9555531D01*
X9941491Y-9555531D02*
X9951015Y-9574579D01*
X9951015Y-9574579D02*
X9960539Y-9612674D01*
X9960539Y-9612674D02*
X9960539Y-9660293D01*
X9960539Y-9660293D02*
X9951015Y-9698388D01*
X9951015Y-9698388D02*
X9941491Y-9717436D01*
X9941491Y-9717436D02*
X9931967Y-9726960D01*
X9931967Y-9726960D02*
X9912920Y-9736484D01*
X9912920Y-9736484D02*
X9893872Y-9736484D01*
X9893872Y-9736484D02*
X9874824Y-9726960D01*
X9874824Y-9726960D02*
X9865301Y-9717436D01*
X9865301Y-9717436D02*
X9855777Y-9698388D01*
X9855777Y-9698388D02*
X9846253Y-9660293D01*
X9846253Y-9660293D02*
X9846253Y-9612674D01*
X9846253Y-9612674D02*
X9855777Y-9574579D01*
X9855777Y-9574579D02*
X9865301Y-9555531D01*
X9865301Y-9555531D02*
X9874824Y-9546008D01*
X9874824Y-9546008D02*
X9893872Y-9536484D01*
X10046253Y-9717436D02*
X10055777Y-9726960D01*
X10055777Y-9726960D02*
X10046253Y-9736484D01*
X10046253Y-9736484D02*
X10036729Y-9726960D01*
X10036729Y-9726960D02*
X10046253Y-9717436D01*
X10046253Y-9717436D02*
X10046253Y-9736484D01*
X10227205Y-9536484D02*
X10189110Y-9536484D01*
X10189110Y-9536484D02*
X10170063Y-9546008D01*
X10170063Y-9546008D02*
X10160539Y-9555531D01*
X10160539Y-9555531D02*
X10141491Y-9584103D01*
X10141491Y-9584103D02*
X10131967Y-9622198D01*
X10131967Y-9622198D02*
X10131967Y-9698388D01*
X10131967Y-9698388D02*
X10141491Y-9717436D01*
X10141491Y-9717436D02*
X10151015Y-9726960D01*
X10151015Y-9726960D02*
X10170063Y-9736484D01*
X10170063Y-9736484D02*
X10208158Y-9736484D01*
X10208158Y-9736484D02*
X10227205Y-9726960D01*
X10227205Y-9726960D02*
X10236729Y-9717436D01*
X10236729Y-9717436D02*
X10246253Y-9698388D01*
X10246253Y-9698388D02*
X10246253Y-9650769D01*
X10246253Y-9650769D02*
X10236729Y-9631722D01*
X10236729Y-9631722D02*
X10227205Y-9622198D01*
X10227205Y-9622198D02*
X10208158Y-9612674D01*
X10208158Y-9612674D02*
X10170063Y-9612674D01*
X10170063Y-9612674D02*
X10151015Y-9622198D01*
X10151015Y-9622198D02*
X10141491Y-9631722D01*
X10141491Y-9631722D02*
X10131967Y-9650769D01*
X10427205Y-9536484D02*
X10331967Y-9536484D01*
X10331967Y-9536484D02*
X10322444Y-9631722D01*
X10322444Y-9631722D02*
X10331967Y-9622198D01*
X10331967Y-9622198D02*
X10351015Y-9612674D01*
X10351015Y-9612674D02*
X10398634Y-9612674D01*
X10398634Y-9612674D02*
X10417682Y-9622198D01*
X10417682Y-9622198D02*
X10427205Y-9631722D01*
X10427205Y-9631722D02*
X10436729Y-9650769D01*
X10436729Y-9650769D02*
X10436729Y-9698388D01*
X10436729Y-9698388D02*
X10427205Y-9717436D01*
X10427205Y-9717436D02*
X10417682Y-9726960D01*
X10417682Y-9726960D02*
X10398634Y-9736484D01*
X10398634Y-9736484D02*
X10351015Y-9736484D01*
X10351015Y-9736484D02*
X10331967Y-9726960D01*
X10331967Y-9726960D02*
X10322444Y-9717436D01*
X10560539Y-9536484D02*
X10579586Y-9536484D01*
X10579586Y-9536484D02*
X10598634Y-9546008D01*
X10598634Y-9546008D02*
X10608158Y-9555531D01*
X10608158Y-9555531D02*
X10617682Y-9574579D01*
X10617682Y-9574579D02*
X10627205Y-9612674D01*
X10627205Y-9612674D02*
X10627205Y-9660293D01*
X10627205Y-9660293D02*
X10617682Y-9698388D01*
X10617682Y-9698388D02*
X10608158Y-9717436D01*
X10608158Y-9717436D02*
X10598634Y-9726960D01*
X10598634Y-9726960D02*
X10579586Y-9736484D01*
X10579586Y-9736484D02*
X10560539Y-9736484D01*
X10560539Y-9736484D02*
X10541491Y-9726960D01*
X10541491Y-9726960D02*
X10531967Y-9717436D01*
X10531967Y-9717436D02*
X10522444Y-9698388D01*
X10522444Y-9698388D02*
X10512920Y-9660293D01*
X10512920Y-9660293D02*
X10512920Y-9612674D01*
X10512920Y-9612674D02*
X10522444Y-9574579D01*
X10522444Y-9574579D02*
X10531967Y-9555531D01*
X10531967Y-9555531D02*
X10541491Y-9546008D01*
X10541491Y-9546008D02*
X10560539Y-9536484D01*
X10712920Y-9736484D02*
X10712920Y-9603150D01*
X10712920Y-9622198D02*
X10722444Y-9612674D01*
X10722444Y-9612674D02*
X10741491Y-9603150D01*
X10741491Y-9603150D02*
X10770063Y-9603150D01*
X10770063Y-9603150D02*
X10789110Y-9612674D01*
X10789110Y-9612674D02*
X10798634Y-9631722D01*
X10798634Y-9631722D02*
X10798634Y-9736484D01*
X10798634Y-9631722D02*
X10808158Y-9612674D01*
X10808158Y-9612674D02*
X10827205Y-9603150D01*
X10827205Y-9603150D02*
X10855777Y-9603150D01*
X10855777Y-9603150D02*
X10874825Y-9612674D01*
X10874825Y-9612674D02*
X10884348Y-9631722D01*
X10884348Y-9631722D02*
X10884348Y-9736484D01*
X10979586Y-9736484D02*
X10979586Y-9603150D01*
X10979586Y-9622198D02*
X10989110Y-9612674D01*
X10989110Y-9612674D02*
X11008158Y-9603150D01*
X11008158Y-9603150D02*
X11036729Y-9603150D01*
X11036729Y-9603150D02*
X11055777Y-9612674D01*
X11055777Y-9612674D02*
X11065301Y-9631722D01*
X11065301Y-9631722D02*
X11065301Y-9736484D01*
X11065301Y-9631722D02*
X11074825Y-9612674D01*
X11074825Y-9612674D02*
X11093872Y-9603150D01*
X11093872Y-9603150D02*
X11122444Y-9603150D01*
X11122444Y-9603150D02*
X11141491Y-9612674D01*
X11141491Y-9612674D02*
X11151015Y-9631722D01*
X11151015Y-9631722D02*
X11151015Y-9736484D01*
X11541491Y-9526960D02*
X11370063Y-9784103D01*
X11798634Y-9536484D02*
X11817682Y-9536484D01*
X11817682Y-9536484D02*
X11836729Y-9546008D01*
X11836729Y-9546008D02*
X11846253Y-9555531D01*
X11846253Y-9555531D02*
X11855777Y-9574579D01*
X11855777Y-9574579D02*
X11865301Y-9612674D01*
X11865301Y-9612674D02*
X11865301Y-9660293D01*
X11865301Y-9660293D02*
X11855777Y-9698388D01*
X11855777Y-9698388D02*
X11846253Y-9717436D01*
X11846253Y-9717436D02*
X11836729Y-9726960D01*
X11836729Y-9726960D02*
X11817682Y-9736484D01*
X11817682Y-9736484D02*
X11798634Y-9736484D01*
X11798634Y-9736484D02*
X11779586Y-9726960D01*
X11779586Y-9726960D02*
X11770063Y-9717436D01*
X11770063Y-9717436D02*
X11760539Y-9698388D01*
X11760539Y-9698388D02*
X11751015Y-9660293D01*
X11751015Y-9660293D02*
X11751015Y-9612674D01*
X11751015Y-9612674D02*
X11760539Y-9574579D01*
X11760539Y-9574579D02*
X11770063Y-9555531D01*
X11770063Y-9555531D02*
X11779586Y-9546008D01*
X11779586Y-9546008D02*
X11798634Y-9536484D01*
X11951015Y-9717436D02*
X11960539Y-9726960D01*
X11960539Y-9726960D02*
X11951015Y-9736484D01*
X11951015Y-9736484D02*
X11941491Y-9726960D01*
X11941491Y-9726960D02*
X11951015Y-9717436D01*
X11951015Y-9717436D02*
X11951015Y-9736484D01*
X12084348Y-9536484D02*
X12103396Y-9536484D01*
X12103396Y-9536484D02*
X12122444Y-9546008D01*
X12122444Y-9546008D02*
X12131967Y-9555531D01*
X12131967Y-9555531D02*
X12141491Y-9574579D01*
X12141491Y-9574579D02*
X12151015Y-9612674D01*
X12151015Y-9612674D02*
X12151015Y-9660293D01*
X12151015Y-9660293D02*
X12141491Y-9698388D01*
X12141491Y-9698388D02*
X12131967Y-9717436D01*
X12131967Y-9717436D02*
X12122444Y-9726960D01*
X12122444Y-9726960D02*
X12103396Y-9736484D01*
X12103396Y-9736484D02*
X12084348Y-9736484D01*
X12084348Y-9736484D02*
X12065301Y-9726960D01*
X12065301Y-9726960D02*
X12055777Y-9717436D01*
X12055777Y-9717436D02*
X12046253Y-9698388D01*
X12046253Y-9698388D02*
X12036729Y-9660293D01*
X12036729Y-9660293D02*
X12036729Y-9612674D01*
X12036729Y-9612674D02*
X12046253Y-9574579D01*
X12046253Y-9574579D02*
X12055777Y-9555531D01*
X12055777Y-9555531D02*
X12065301Y-9546008D01*
X12065301Y-9546008D02*
X12084348Y-9536484D01*
X12227206Y-9555531D02*
X12236729Y-9546008D01*
X12236729Y-9546008D02*
X12255777Y-9536484D01*
X12255777Y-9536484D02*
X12303396Y-9536484D01*
X12303396Y-9536484D02*
X12322444Y-9546008D01*
X12322444Y-9546008D02*
X12331967Y-9555531D01*
X12331967Y-9555531D02*
X12341491Y-9574579D01*
X12341491Y-9574579D02*
X12341491Y-9593627D01*
X12341491Y-9593627D02*
X12331967Y-9622198D01*
X12331967Y-9622198D02*
X12217682Y-9736484D01*
X12217682Y-9736484D02*
X12341491Y-9736484D01*
X12522444Y-9536484D02*
X12427206Y-9536484D01*
X12427206Y-9536484D02*
X12417682Y-9631722D01*
X12417682Y-9631722D02*
X12427206Y-9622198D01*
X12427206Y-9622198D02*
X12446253Y-9612674D01*
X12446253Y-9612674D02*
X12493872Y-9612674D01*
X12493872Y-9612674D02*
X12512920Y-9622198D01*
X12512920Y-9622198D02*
X12522444Y-9631722D01*
X12522444Y-9631722D02*
X12531967Y-9650769D01*
X12531967Y-9650769D02*
X12531967Y-9698388D01*
X12531967Y-9698388D02*
X12522444Y-9717436D01*
X12522444Y-9717436D02*
X12512920Y-9726960D01*
X12512920Y-9726960D02*
X12493872Y-9736484D01*
X12493872Y-9736484D02*
X12446253Y-9736484D01*
X12446253Y-9736484D02*
X12427206Y-9726960D01*
X12427206Y-9726960D02*
X12417682Y-9717436D01*
X12703396Y-9536484D02*
X12665301Y-9536484D01*
X12665301Y-9536484D02*
X12646253Y-9546008D01*
X12646253Y-9546008D02*
X12636729Y-9555531D01*
X12636729Y-9555531D02*
X12617682Y-9584103D01*
X12617682Y-9584103D02*
X12608158Y-9622198D01*
X12608158Y-9622198D02*
X12608158Y-9698388D01*
X12608158Y-9698388D02*
X12617682Y-9717436D01*
X12617682Y-9717436D02*
X12627206Y-9726960D01*
X12627206Y-9726960D02*
X12646253Y-9736484D01*
X12646253Y-9736484D02*
X12684348Y-9736484D01*
X12684348Y-9736484D02*
X12703396Y-9726960D01*
X12703396Y-9726960D02*
X12712920Y-9717436D01*
X12712920Y-9717436D02*
X12722444Y-9698388D01*
X12722444Y-9698388D02*
X12722444Y-9650769D01*
X12722444Y-9650769D02*
X12712920Y-9631722D01*
X12712920Y-9631722D02*
X12703396Y-9622198D01*
X12703396Y-9622198D02*
X12684348Y-9612674D01*
X12684348Y-9612674D02*
X12646253Y-9612674D01*
X12646253Y-9612674D02*
X12627206Y-9622198D01*
X12627206Y-9622198D02*
X12617682Y-9631722D01*
X12617682Y-9631722D02*
X12608158Y-9650769D01*
X12798634Y-9536484D02*
X12798634Y-9574579D01*
X12874825Y-9536484D02*
X12874825Y-9574579D01*
X13170063Y-9812674D02*
X13160539Y-9803150D01*
X13160539Y-9803150D02*
X13141491Y-9774579D01*
X13141491Y-9774579D02*
X13131968Y-9755531D01*
X13131968Y-9755531D02*
X13122444Y-9726960D01*
X13122444Y-9726960D02*
X13112920Y-9679341D01*
X13112920Y-9679341D02*
X13112920Y-9641246D01*
X13112920Y-9641246D02*
X13122444Y-9593627D01*
X13122444Y-9593627D02*
X13131968Y-9565055D01*
X13131968Y-9565055D02*
X13141491Y-9546008D01*
X13141491Y-9546008D02*
X13160539Y-9517436D01*
X13160539Y-9517436D02*
X13170063Y-9507912D01*
X13236729Y-9555531D02*
X13246253Y-9546008D01*
X13246253Y-9546008D02*
X13265301Y-9536484D01*
X13265301Y-9536484D02*
X13312920Y-9536484D01*
X13312920Y-9536484D02*
X13331968Y-9546008D01*
X13331968Y-9546008D02*
X13341491Y-9555531D01*
X13341491Y-9555531D02*
X13351015Y-9574579D01*
X13351015Y-9574579D02*
X13351015Y-9593627D01*
X13351015Y-9593627D02*
X13341491Y-9622198D01*
X13341491Y-9622198D02*
X13227206Y-9736484D01*
X13227206Y-9736484D02*
X13351015Y-9736484D01*
X13589110Y-9736484D02*
X13589110Y-9536484D01*
X13674825Y-9736484D02*
X13674825Y-9631722D01*
X13674825Y-9631722D02*
X13665301Y-9612674D01*
X13665301Y-9612674D02*
X13646253Y-9603150D01*
X13646253Y-9603150D02*
X13617682Y-9603150D01*
X13617682Y-9603150D02*
X13598634Y-9612674D01*
X13598634Y-9612674D02*
X13589110Y-9622198D01*
X13798634Y-9736484D02*
X13779587Y-9726960D01*
X13779587Y-9726960D02*
X13770063Y-9717436D01*
X13770063Y-9717436D02*
X13760539Y-9698388D01*
X13760539Y-9698388D02*
X13760539Y-9641246D01*
X13760539Y-9641246D02*
X13770063Y-9622198D01*
X13770063Y-9622198D02*
X13779587Y-9612674D01*
X13779587Y-9612674D02*
X13798634Y-9603150D01*
X13798634Y-9603150D02*
X13827206Y-9603150D01*
X13827206Y-9603150D02*
X13846253Y-9612674D01*
X13846253Y-9612674D02*
X13855777Y-9622198D01*
X13855777Y-9622198D02*
X13865301Y-9641246D01*
X13865301Y-9641246D02*
X13865301Y-9698388D01*
X13865301Y-9698388D02*
X13855777Y-9717436D01*
X13855777Y-9717436D02*
X13846253Y-9726960D01*
X13846253Y-9726960D02*
X13827206Y-9736484D01*
X13827206Y-9736484D02*
X13798634Y-9736484D01*
X13979587Y-9736484D02*
X13960539Y-9726960D01*
X13960539Y-9726960D02*
X13951015Y-9707912D01*
X13951015Y-9707912D02*
X13951015Y-9536484D01*
X14131968Y-9726960D02*
X14112920Y-9736484D01*
X14112920Y-9736484D02*
X14074825Y-9736484D01*
X14074825Y-9736484D02*
X14055777Y-9726960D01*
X14055777Y-9726960D02*
X14046253Y-9707912D01*
X14046253Y-9707912D02*
X14046253Y-9631722D01*
X14046253Y-9631722D02*
X14055777Y-9612674D01*
X14055777Y-9612674D02*
X14074825Y-9603150D01*
X14074825Y-9603150D02*
X14112920Y-9603150D01*
X14112920Y-9603150D02*
X14131968Y-9612674D01*
X14131968Y-9612674D02*
X14141491Y-9631722D01*
X14141491Y-9631722D02*
X14141491Y-9650769D01*
X14141491Y-9650769D02*
X14046253Y-9669817D01*
X14217682Y-9726960D02*
X14236730Y-9736484D01*
X14236730Y-9736484D02*
X14274825Y-9736484D01*
X14274825Y-9736484D02*
X14293872Y-9726960D01*
X14293872Y-9726960D02*
X14303396Y-9707912D01*
X14303396Y-9707912D02*
X14303396Y-9698388D01*
X14303396Y-9698388D02*
X14293872Y-9679341D01*
X14293872Y-9679341D02*
X14274825Y-9669817D01*
X14274825Y-9669817D02*
X14246253Y-9669817D01*
X14246253Y-9669817D02*
X14227206Y-9660293D01*
X14227206Y-9660293D02*
X14217682Y-9641246D01*
X14217682Y-9641246D02*
X14217682Y-9631722D01*
X14217682Y-9631722D02*
X14227206Y-9612674D01*
X14227206Y-9612674D02*
X14246253Y-9603150D01*
X14246253Y-9603150D02*
X14274825Y-9603150D01*
X14274825Y-9603150D02*
X14293872Y-9612674D01*
X14370063Y-9812674D02*
X14379587Y-9803150D01*
X14379587Y-9803150D02*
X14398634Y-9774579D01*
X14398634Y-9774579D02*
X14408158Y-9755531D01*
X14408158Y-9755531D02*
X14417682Y-9726960D01*
X14417682Y-9726960D02*
X14427206Y-9679341D01*
X14427206Y-9679341D02*
X14427206Y-9641246D01*
X14427206Y-9641246D02*
X14417682Y-9593627D01*
X14417682Y-9593627D02*
X14408158Y-9565055D01*
X14408158Y-9565055D02*
X14398634Y-9546008D01*
X14398634Y-9546008D02*
X14379587Y-9517436D01*
X14379587Y-9517436D02*
X14370063Y-9507912D01*
X14731968Y-9812674D02*
X14722444Y-9803150D01*
X14722444Y-9803150D02*
X14703396Y-9774579D01*
X14703396Y-9774579D02*
X14693872Y-9755531D01*
X14693872Y-9755531D02*
X14684349Y-9726960D01*
X14684349Y-9726960D02*
X14674825Y-9679341D01*
X14674825Y-9679341D02*
X14674825Y-9641246D01*
X14674825Y-9641246D02*
X14684349Y-9593627D01*
X14684349Y-9593627D02*
X14693872Y-9565055D01*
X14693872Y-9565055D02*
X14703396Y-9546008D01*
X14703396Y-9546008D02*
X14722444Y-9517436D01*
X14722444Y-9517436D02*
X14731968Y-9507912D01*
X14808158Y-9603150D02*
X14808158Y-9736484D01*
X14808158Y-9622198D02*
X14817682Y-9612674D01*
X14817682Y-9612674D02*
X14836730Y-9603150D01*
X14836730Y-9603150D02*
X14865301Y-9603150D01*
X14865301Y-9603150D02*
X14884349Y-9612674D01*
X14884349Y-9612674D02*
X14893872Y-9631722D01*
X14893872Y-9631722D02*
X14893872Y-9736484D01*
X15017682Y-9736484D02*
X14998634Y-9726960D01*
X14998634Y-9726960D02*
X14989111Y-9717436D01*
X14989111Y-9717436D02*
X14979587Y-9698388D01*
X14979587Y-9698388D02*
X14979587Y-9641246D01*
X14979587Y-9641246D02*
X14989111Y-9622198D01*
X14989111Y-9622198D02*
X14998634Y-9612674D01*
X14998634Y-9612674D02*
X15017682Y-9603150D01*
X15017682Y-9603150D02*
X15046253Y-9603150D01*
X15046253Y-9603150D02*
X15065301Y-9612674D01*
X15065301Y-9612674D02*
X15074825Y-9622198D01*
X15074825Y-9622198D02*
X15084349Y-9641246D01*
X15084349Y-9641246D02*
X15084349Y-9698388D01*
X15084349Y-9698388D02*
X15074825Y-9717436D01*
X15074825Y-9717436D02*
X15065301Y-9726960D01*
X15065301Y-9726960D02*
X15046253Y-9736484D01*
X15046253Y-9736484D02*
X15017682Y-9736484D01*
X15141492Y-9603150D02*
X15217682Y-9603150D01*
X15170063Y-9536484D02*
X15170063Y-9707912D01*
X15170063Y-9707912D02*
X15179587Y-9726960D01*
X15179587Y-9726960D02*
X15198634Y-9736484D01*
X15198634Y-9736484D02*
X15217682Y-9736484D01*
X15436730Y-9603150D02*
X15436730Y-9803150D01*
X15436730Y-9612674D02*
X15455777Y-9603150D01*
X15455777Y-9603150D02*
X15493873Y-9603150D01*
X15493873Y-9603150D02*
X15512920Y-9612674D01*
X15512920Y-9612674D02*
X15522444Y-9622198D01*
X15522444Y-9622198D02*
X15531968Y-9641246D01*
X15531968Y-9641246D02*
X15531968Y-9698388D01*
X15531968Y-9698388D02*
X15522444Y-9717436D01*
X15522444Y-9717436D02*
X15512920Y-9726960D01*
X15512920Y-9726960D02*
X15493873Y-9736484D01*
X15493873Y-9736484D02*
X15455777Y-9736484D01*
X15455777Y-9736484D02*
X15436730Y-9726960D01*
X15646253Y-9736484D02*
X15627206Y-9726960D01*
X15627206Y-9726960D02*
X15617682Y-9707912D01*
X15617682Y-9707912D02*
X15617682Y-9536484D01*
X15808158Y-9736484D02*
X15808158Y-9631722D01*
X15808158Y-9631722D02*
X15798634Y-9612674D01*
X15798634Y-9612674D02*
X15779587Y-9603150D01*
X15779587Y-9603150D02*
X15741492Y-9603150D01*
X15741492Y-9603150D02*
X15722444Y-9612674D01*
X15808158Y-9726960D02*
X15789111Y-9736484D01*
X15789111Y-9736484D02*
X15741492Y-9736484D01*
X15741492Y-9736484D02*
X15722444Y-9726960D01*
X15722444Y-9726960D02*
X15712920Y-9707912D01*
X15712920Y-9707912D02*
X15712920Y-9688865D01*
X15712920Y-9688865D02*
X15722444Y-9669817D01*
X15722444Y-9669817D02*
X15741492Y-9660293D01*
X15741492Y-9660293D02*
X15789111Y-9660293D01*
X15789111Y-9660293D02*
X15808158Y-9650769D01*
X15874825Y-9603150D02*
X15951015Y-9603150D01*
X15903396Y-9536484D02*
X15903396Y-9707912D01*
X15903396Y-9707912D02*
X15912920Y-9726960D01*
X15912920Y-9726960D02*
X15931968Y-9736484D01*
X15931968Y-9736484D02*
X15951015Y-9736484D01*
X16093873Y-9726960D02*
X16074825Y-9736484D01*
X16074825Y-9736484D02*
X16036730Y-9736484D01*
X16036730Y-9736484D02*
X16017682Y-9726960D01*
X16017682Y-9726960D02*
X16008158Y-9707912D01*
X16008158Y-9707912D02*
X16008158Y-9631722D01*
X16008158Y-9631722D02*
X16017682Y-9612674D01*
X16017682Y-9612674D02*
X16036730Y-9603150D01*
X16036730Y-9603150D02*
X16074825Y-9603150D01*
X16074825Y-9603150D02*
X16093873Y-9612674D01*
X16093873Y-9612674D02*
X16103396Y-9631722D01*
X16103396Y-9631722D02*
X16103396Y-9650769D01*
X16103396Y-9650769D02*
X16008158Y-9669817D01*
X16274825Y-9736484D02*
X16274825Y-9536484D01*
X16274825Y-9726960D02*
X16255777Y-9736484D01*
X16255777Y-9736484D02*
X16217682Y-9736484D01*
X16217682Y-9736484D02*
X16198634Y-9726960D01*
X16198634Y-9726960D02*
X16189111Y-9717436D01*
X16189111Y-9717436D02*
X16179587Y-9698388D01*
X16179587Y-9698388D02*
X16179587Y-9641246D01*
X16179587Y-9641246D02*
X16189111Y-9622198D01*
X16189111Y-9622198D02*
X16198634Y-9612674D01*
X16198634Y-9612674D02*
X16217682Y-9603150D01*
X16217682Y-9603150D02*
X16255777Y-9603150D01*
X16255777Y-9603150D02*
X16274825Y-9612674D01*
X16351015Y-9812674D02*
X16360539Y-9803150D01*
X16360539Y-9803150D02*
X16379587Y-9774579D01*
X16379587Y-9774579D02*
X16389111Y-9755531D01*
X16389111Y-9755531D02*
X16398634Y-9726960D01*
X16398634Y-9726960D02*
X16408158Y-9679341D01*
X16408158Y-9679341D02*
X16408158Y-9641246D01*
X16408158Y-9641246D02*
X16398634Y-9593627D01*
X16398634Y-9593627D02*
X16389111Y-9565055D01*
X16389111Y-9565055D02*
X16379587Y-9546008D01*
X16379587Y-9546008D02*
X16360539Y-9517436D01*
X16360539Y-9517436D02*
X16351015Y-9507912D01*
M02*
